<?xml version="1.0" encoding="utf-8"?>
<!-- Generator: Adobe Illustrator 26.0.3, SVG Export Plug-In . SVG Version: 6.00 Build 0)  -->
<svg version="1.1" id="Livello_1" xmlns="http://www.w3.org/2000/svg" xmlns:xlink="http://www.w3.org/1999/xlink" x="0px" y="0px"
	 viewBox="0 0 720 720" style="enable-background:new 0 0 720 720;" xml:space="preserve">
<style type="text/css">
	.st0{fill:#F8B692;}
	.st1{fill:#EA5160;}
	.st2{fill:#FFFFFF;}
	.st3{fill:#F6BCC8;}
	.st4{fill:#D83B55;}
</style>
<g id="_x39__00000098906286428896291230000013113330050996241338_">
	<path id="black_00000013899421989209581960000001769896223406129803_" d="M676.8354492,166.7366943
		c25.067688-50.0857925,14.4550171-132.9429321-11.7677002-158.2345123
		c-11.9185791-11.454175-34.7279053-17.0339317-75.7073975,21.425602
		c-28.9241943,27.1609402-42.3797607,52.1672974-46.4720459,60.759697
		c-26.9817505-8.7998428-43.4640808-10.3603821-63.7133789-10.0492172
		c-20.3671875-0.3040924-36.7363586,1.2493744-63.6945496,10.0492172
		c-4.0970154-8.5923996-17.557251-33.5987549-46.4814758-60.7620544
		C328.0005493-8.5364656,305.2006226-2.9614248,293.282074,8.5068941
		c-26.2180176,25.2868767-36.8306274,108.1440048-11.7630005,158.2297974
		c12.036438,24.039856,19.3016663,33.9499969,22.7857666,37.8678436
		c-5.4736633,10.0162201-25.2703552,48.4498291-28.6507568,86.039505c-0.108429,1.2257996,0.4101868,2.4256897,1.3766785,3.1847229
		c0.9712219,0.7614136,2.263031,0.978302,3.422821,0.579895l3.5736694-1.2257996
		c-1.8292542,8.4863281-3.8753967,23.5896301,0.4243164,37.4034729c0.3771667,1.2092896,1.3531189,2.1357117,2.5789185,2.444519
		c1.2304993,0.3111572,2.5223083-0.0400696,3.432251-0.9240723l2.9466248-2.8829956
		c6.5144348,13.7840881,14.8557739,25.7745667,24.4164429,36.2383728
		c-8.3929138,1.1645203-19.0526733,2.2288208-32.6528931,3.0085144c-8.7898254,0.5053406-18.4085388,0.4458313-27.8197937,0.0969543
		c-4.0878754-5.8720703-29.7858124-7.3294678-30.0521851-7.338623c-13.1078339-0.5371704-21.9224091,1.5964966-25.2535858,3.0205994
		c-12.487854-1.18396-25.4739838-1.6141663-39.369751-0.000885c-12.4212646,1.443573-40.839241,6.8126526-67.4839249,26.1867981
		c-7.6930847-18.8664551-0.000885-43.4013367,0.0931091-43.6968994c0.3818893-1.1763,0.1414413-2.4657288-0.6411896-3.4204407
		c-0.7826233-0.9570923-2.0414276-1.4568176-3.2200851-1.3130493c-0.5751801,0.0636597-14.2428741,1.7326355-26.2368698,14.1792297
		c-9.6932678,10.0798645-12.908638,19.3441162-13.8751373,25.4943237l-10.7634811-7.7154846
		c-1.4803925-1.0678406-3.5501137-0.8651123-4.7947731,0.497406c-0.561039,0.6081848-13.5309658,15.2447205-2.2111588,45.4041748
		c4.4049339,11.7479553,11.5696869,19.9605408,18.2782974,25.5099487
		c-3.3685951,7.8265686-6.2931366,16.3564758-8.5897484,25.7544861c-0.28759,1.4356079-7.043644,35.5953979,0,70.8984985
		c7.0342178,35.213501,39.0795059,87.7391357,40.3854599,89.8701172
		c2.6967621,4.6958008,9.8724136,18.3163452,10.7069016,24.8932495c0.3866043,3.0644531,0.6883392,6.100708,0.9853592,9.0756226
		c1.5133972,15.1009521,2.9372101,29.3626709,14.257019,38.2591553
		c9.7404099,7.6565552,26.1001511,11.1218262,42.3514481,11.1218262c12.6257629,0,25.1855164-2.0933228,34.5157623-5.9263306
		c9.5188141-3.9178467,14.9783478-9.3867798,15.7798309-15.8269653
		c4.351593-35.0673828-25.1572266-45.8685303-34.5581818-48.3955688l-0.4903107-6.1148682
		c0.4947357-0.1211548,1.0445709-0.260498,1.6439209-0.4181519c0.1208191-0.0317993,0.2669678-0.0736694,0.3919067-0.1069336
		c0.4903259-0.1308594,0.9900665-0.2655029,1.5428619-0.4213867c0.2719727-0.0765991,0.5822601-0.1703491,0.8689575-0.2531128
		c0.4470062-0.1296387,0.8810425-0.2531128,1.3634186-0.3986816c0.354187-0.1069946,0.7469635-0.2327881,1.1200104-0.3486328
		c0.4593811-0.1425781,0.9031525-0.2772217,1.3899384-0.434021c0.4446411-0.1428833,0.927597-0.3076172,1.3946381-0.4625854
		c0.4573212-0.1517944,0.8978424-0.2943726,1.3760834-0.4584961c0.2911224-0.0996094,0.6011047-0.2119141,0.8999023-0.315918
		c4.0681305,3.2516479,11.0917358,5.2523804,21.7462006,7.4932861c15.5776978,3.293457,28.2402802,3.5480957,30.3044128,3.5671997
		c27.66716,8.0042725,63.5227509,14.7585449,96.8253632,14.7585449c4.5776062,0,9.0921631-0.164978,13.5433655-0.435791
		c0.0783691,0.2092285,0.1531982,0.4431763,0.2327576,0.6432495c1.6218567,4.0640259,3.4982605,6.317627,5.9074402,7.0908203
		c0.1269836,0.0406494,0.2887573,0.0751343,0.4246216,0.1143188c4.1671143,16.1699829,11.1780701,31.3009644,22.8609009,40.4879761
		c9.5612488,7.5198364,25.6239624,10.9190674,41.5688171,10.9143677c12.3900452,0,24.7140503-2.0508423,33.8651428-5.8131104
		c3.8892517-1.5991821,7.045105-3.477356,9.5137939-5.5656128c0.0318298-0.0233154,0.0568848-0.0533447,0.0875244-0.0775146
		c3.4225159-2.9242554,5.4648438-6.2689819,5.9239197-9.9481812c3.0020447-24.1624146-10.3695068-36.5524292-21.808075-42.6723022
		c0.3108826-0.3135376,0.6830444-0.6193848,0.9176025-0.942627c0.8551025-1.1768799,1.5855713-3.7304688,2.116272-6.9953613
		c13.8153076-3.1331177,27.9258728-7.095459,41.7624207-12.1274414c1.5770264-0.5071411,3.144928-1.0516968,4.7157898-1.5935669
		c4.2027893,15.7288818,11.1509705,30.3589478,22.553894,39.3297119
		c9.5565186,7.510376,25.6051025,10.9049072,41.5452271,10.9049072c12.4041748,0,24.7423706-2.055603,33.902832-5.8272705
		c3.8822021-1.5974121,7.0330811-3.4732056,9.4979248-5.5588379c0.0106201-0.0076904,0.0185547-0.017395,0.0288696-0.0253296
		c3.4528809-2.9310303,5.5111084-6.2887573,5.9702148-9.9835205c3.0093994-24.1763306-10.3621826-36.5668945-21.7998657-42.6849976
		c0.3076172-0.3112183,0.6768799-0.6141357,0.9093628-0.9346924c3.5810547-4.9194336,5.1742554-33.0524292-2.3187256-42.2280273
		c0.145874-1.7567749,0.2887573-3.5238647,0.4237061-5.3407593c23.7826538-27.2557983,46.7649536-66.802063,44.8154297-116.6930847
		c-0.0214844-0.6845093-0.0639038-1.3772583-0.0945435-2.0655823c0.7410889-0.9161377,1.5404663-1.8110046,2.2034912-2.7554016
		c7.5386963-10.7375793,9.3443604-22.6443481,5.2662354-34.5181274c1.9851074-5.5222778,8.2037354-26.1263733-3.9361572-38.7082214
		c14.6038818-12.9177856,27.2163696-28.7076416,36.3114624-47.9418335l2.9230347,2.868866
		c0.9099731,0.8887024,2.2205811,1.2328796,3.432251,0.9311218c1.2258301-0.3088074,2.2064819-1.2352295,2.5836182-2.4421692
		c4.3139038-13.8185425,2.2677612-28.9218445,0.4431763-37.4105225l3.5784302,1.2281494
		c1.1691895,0.398407,2.4515991,0.1815186,3.4227905-0.579895c0.9711914-0.7590332,1.4851074-1.9589233,1.3766479-3.1847229
		c-3.3897705-37.5896759-23.1817627-76.0232849-28.6507568-86.0371399
		C657.5338135,200.6866913,664.803772,190.7765503,676.8354492,166.7366943z"/>
	<g id="orange_00000040576186910117026100000008145522002776048261_">
		<path class="st0" d="M647.4586182,201.0002136c0.1885986-0.1532288,6.9918213-5.7801208,22.8706665-37.5166016
			c23.4128418-46.7737732,13.743103-126.5522614-10.3014526-149.7434845
			c-17.4724121-16.7840557-45.3640747,2.409173-65.6888428,21.4892502
			c-33.7802734,31.7176247-46.0005493,61.019001-46.1184082,61.311306c-0.7213745,1.7774124-2.7297974,2.6708374-4.526062,2.0744324
			c-30.5743408-10.2896576-47.2027893-10.959137-64.3027344-10.7069016
			c-0.0660095,0.004715-0.1461487,0.0070724-0.2215881,0.0023575c-0.0565796,0.004715-0.1461487,0.0023575-0.2168579-0.0023575
			c-20.1502991-0.3040924-36.4770508,1.3436661-64.2791748,10.7045441
			c-1.8104248,0.6105499-3.7952576-0.2946625-4.5260315-2.0697174c-0.1178589-0.292305-12.3475952-29.5960388-46.1278687-61.316021
			C334.860321,7.868063,312.1358337,0.4519618,298.3266602,13.7424822
			c-24.0445251,23.1888733-33.7142029,102.9673538-10.3013916,149.7411346
			c15.8835449,31.7364807,22.6867676,37.3633728,22.969635,37.587326c1.409668,1.1197205,1.8717041,3.1682281,0.9712219,4.7264099
			c-0.2451782,0.4196014-23.1393738,40.4467468-28.4385986,79.8704071l4.5260315-1.5511169
			c1.3059387-0.438446,2.7391968-0.1178589,3.7245483,0.846283c0.9806519,0.9641418,1.3342285,2.4020996,0.9146423,3.7127686
			c-0.0613098,0.1909485-5.4783936,17.3050232-2.7156372,33.7402039l2.0697327-2.0249329
			c0.6836243-0.6694946,1.6029663-1.0348511,2.5411682-1.0348511c0.2357483,0,0.4714661,0.0235596,0.7071838,0.0683594
			c1.1739502,0.2333679,2.1593018,1.0301208,2.6307678,2.131012c8.6595764,20.1523438,21.2956543,36.5444946,36.1552734,49.8093872
			c12.8252258,8.2933044,63.959137,37.589386,143.8442993,35.9142151
			c94.7854004-2.0703125,140.1550903-31.1380005,142.979187-33.0135498
			c16.3161011-13.7540283,30.2219238-31.0555115,39.5285645-52.7100525c0.4714355-1.1008911,1.4568481-1.8999939,2.635498-2.131012
			c1.1691895-0.2380981,2.3855591,0.1296387,3.2483521,0.9711914l2.0508423,2.0131531
			c2.7722168-16.4328308-2.6448975-33.5421753-2.7061768-33.7331238c-0.4196167-1.3106689-0.065979-2.7486267,0.9146118-3.7127686
			c0.9806519-0.9641418,2.4186401-1.2870789,3.7245483-0.846283l4.526062,1.5511169
			c-5.3039551-39.4236603-28.1934204-79.4508057-28.4338989-79.8704071
			C645.4501953,204.1637268,645.9122314,202.0798645,647.4586182,201.0002136z M378.0274048,130.3822479
			c-0.8627625,0.8604126-2.0932922,1.2446594-3.290802,0.9900665c-3.0079346-0.6081848-6.4920349-0.6341248-8.1940308-0.1579437
			c0.0895996,0.4785309,0.1980286,1.0136414,0.2923279,1.4662476c0.8486328,4.1465149,2.1357117,10.4122467-0.8109131,14.8722839
			c-1.7208557,2.574173-4.3328247,5.28508-7.6376953,8.7173309c-6.5391846,6.7819824-15.4875488,16.0697937-23.7758484,30.8642731
			c-0.6694641,1.1880951-1.9046936,1.8575592-3.1776428,1.8575592c-0.5987549,0-1.2116699-0.1484985-1.7727051-0.464386
			c-1.749115-0.9806366-2.3761597-3.1965179-1.3955383-4.947998c8.745636-15.6101074,18.0758667-25.2892303,24.8837891-32.3540955
			c3.0550842-3.1729431,5.4689636-5.6764069,6.822052-7.6966248c1.2729492-1.9282684,0.3158875-6.5957489-0.2593079-9.3844452
			c-0.6553345-3.1894531-1.1268005-5.4949036,0.513916-7.3312454c2.3337097-2.590683,6.2845764-3.3355942,9.7639771-3.2271576
			c-0.4526672-0.8462753-0.9335022-1.6571884-1.3955383-2.4327469c-1.5322571-2.5930405-2.8617859-4.8301315-2.6873474-7.3807373
			c0.3394775-4.9032059,7.0578003-7.7296219,19.9994507-8.4273911
			c-3.7905579-9.3538132-14.2381592-31.3899536-34.7420654-49.9820671
			c-14.1344299-12.8308449-25.5956726-18.4954643-35.0673523-17.3144531
			c-2.0320129,0.2498741-3.8094177-1.1621552-4.0592957-3.1540833s1.1645203-3.8094139,3.1540833-4.059288
			c11.7205505-1.47332,25.0534973,4.7994843,40.8569031,19.1437225
			c28.217041,25.5838966,38.089447,56.4552498,38.4949036,57.7564812c0.3441772,1.0985107,0.1461487,2.2913055-0.5280457,3.2224503
			c-0.6741943,0.9287796-1.7538147,1.4850998-2.8994751,1.4968872c-7.4679565,0.0848618-15.1763611,1.1597977-17.7081299,2.3973846
			c0.339447,0.7307663,0.9570007,1.7703476,1.442688,2.5930481c1.508667,2.5458908,3.3851013,5.7117615,4.1771545,9.6484756
			C379.2673645,128.2865906,378.8901672,129.5218201,378.0274048,130.3822479z M382.4246826,225.8848724
			c0-14.5914612,10.0515747-26.4725952,22.4085999-26.4725952c12.3711548,0,22.4177246,11.881134,22.4177246,26.4725952
			c0,14.5967712-10.0465698,26.4914703-22.4177246,26.4914703
			C392.4762573,252.3763428,382.4246826,240.4816437,382.4246826,225.8848724z M550.1016846,300.8983459H547.09375
			c-0.1414185,0.7637634-0.2687378,1.7090454-0.3771362,2.4916687c-0.8692627,6.245697-2.4675293,17.3495178-13.3087769,23.929657
			c-3.7805786,2.7218323-11.5930176,7.335968-24.3345642,10.4679565
			c2.3128357,11.8106995,0.6447449,27.3439026-7.6641846,35.4660339c-5.0257874,4.9102783-12.3711853,7.6801147-20.291748,7.6801147
			c-0.3630371,0-0.721344-0.0046997-1.0843506-0.01651c-7.925293-0.2522278-15.1528015-3.1776428-19.339386-7.8239136
			c-5.2803955-5.8649902-6.4354553-13.1537781-7.4490967-19.5868835c-0.5374756-3.4086914-1.0466614-6.631134-2.0885925-9.4905396
			c-1.0183716-2.7863464-1.9565735-4.6839905-3.9885559-6.723053c-0.1113892-0.111969-0.2363281-0.2201233-0.353302-0.3309021
			c-12.5871582-3.4328308-19.9405212-8.1047363-23.0144348-10.4199219
			c-9.7283325-6.6493835-11.2131348-17.1452942-12.0485229-23.1449585c-0.108429-0.7849731-0.240448-1.7349854-0.3771667-2.4987488
			h-3.0126343c-2.0414429,0-3.7009888-1.657196-3.7009888-3.7009888c0-2.0437622,1.6595459-3.7009583,3.7009888-3.7009583h5.3699341
			c0.7260742,0,1.4379578,0.2145081,2.0414429,0.6152649c2.3808899,1.5746765,2.7910461,4.5260315,3.3096619,8.2647095
			c0.7290039,5.2226257,1.7040405,12.1248474,7.5230713,16.9735413c0.1205139,0.0765991,0.2586975,0.1031189,0.3724365,0.1956482
			c2.6894226,2.1984863,6.1961975,3.7345581,10.5955505,4.6763306c0.1794434,0.0376892,0.3521118,0.078949,0.5350952,0.114624
			c1.157135,0.2310181,2.4097595,0.3992615,3.6915588,0.5498352c0.3049622,0.0327148,0.574585,0.085144,0.8883972,0.1131592
			c16.2972717,1.4797974,28.3239746-6.7828674,32.8146667-15.2261963l-0.0648193-11.6719055
			c-7.7797241-3.6223145-25.242981-12.7153625-29.0927734-23.0615845c-1.1456604-3.0933838-1.0183411-6.0680237,0.3865967-8.8493347
			c7.9344177-15.9118652,30.65448-16.3411865,32.3847351-16.3600464c0.013855,0,0.04245,0,0.0565796,0
			c0.0188599,0,0.0282898,0,0.0521545,0c1.7252808,0.0188599,24.4591675,0.4481812,32.4083252,16.3600464
			c1.3861084,2.781311,1.5128174,5.7559509,0.3674316,8.8493347c-3.8491821,10.3757019-21.4064331,19.4937744-29.1605225,23.0948792
			l0.0642395,11.5614319c4.4694824,8.471283,16.5657043,16.7828674,32.8694763,15.3033752
			c0.0465698-0.0041504,0.0854492-0.0126953,0.132019-0.0168152c6.5512695-0.6895142,11.5095825-2.3676147,15.1088867-5.1401062
			c0.013855-0.0282898,0.0285645-0.0377197,0.0424194-0.0377197c0.3129272-0.3043823,0.6915894-0.5162659,1.086731-0.687439
			c5.5762329-4.8360291,6.5261841-11.605072,7.2407837-16.7457581c0.5186157-3.7339783,0.928772-6.6829834,3.3002319-8.2576599
			c0.6081543-0.4031067,1.3200684-0.6176147,2.0461426-0.6176147h5.3699341c2.0414429,0,3.7009888,1.657196,3.7009888,3.7009583
			C553.8026733,299.2411499,552.1431274,300.8983459,550.1016846,300.8983459z M553.5041504,252.3763428
			c-12.3572998,0-22.413269-11.8946991-22.413269-26.4914703c0-14.5914612,10.0559692-26.4725952,22.413269-26.4725952
			c12.3712158,0,22.4224854,11.881134,22.4224854,26.4725952
			C575.9266357,240.4816437,565.8753662,252.3763428,553.5041504,252.3763428z M642.2537231,38.0487175
			c-9.4716797-1.1810112-20.9329224,4.4836082-35.0673828,17.3144531
			c-20.5039062,18.5921135-30.9514771,40.6282539-34.7420654,49.9820671
			c12.9416504,0.6977692,19.6599731,3.5241852,19.9994507,8.4273911c0.1744385,2.5506058-1.1550903,4.7876968-2.6873169,7.3807373
			c-0.4620361,0.7755585-0.9429321,1.5864716-1.3955688,2.4327469c3.4794312-0.1084366,7.4302368,0.6364746,9.7639771,3.2271576
			c1.640686,1.8363419,1.1692505,4.1417923,0.513916,7.3312454c-0.5751953,2.7886963-1.5322266,7.4561768-0.2592773,9.3844452
			c1.3530884,2.0202179,3.7669678,4.5236816,6.8220215,7.6966248c6.8079224,7.0648651,16.1381836,16.743988,24.8837891,32.3540955
			c0.9806519,1.7514801,0.3535767,3.9673615-1.3955078,4.947998c-0.5610352,0.3158875-1.1739502,0.464386-1.7727051,0.464386
			c-1.2729492,0-2.5081787-0.6694641-3.1776733-1.8575592c-8.2883301-14.7944794-17.2366333-24.0822906-23.7758179-30.8642731
			c-3.3049927-3.432251-5.9168701-6.143158-7.6376953-8.7173309c-2.9466553-4.4600372-1.6595459-10.725769-0.8109131-14.8722839
			c0.0942993-0.4526062,0.2026978-0.9877167,0.2922974-1.4662476c-1.7019653-0.476181-5.1860962-0.4502411-8.1940308,0.1579437
			c-1.1975098,0.2545929-2.4280396-0.1296539-3.2907715-0.9900665c-0.862793-0.8604279-1.2399902-2.0956573-0.9995117-3.2884521
			c0.7920532-3.9367142,2.668457-7.1025848,4.177124-9.6484756c0.4855957-0.8227005,1.1032715-1.8622818,1.442688-2.5930481
			c-2.5317383-1.237587-10.2401733-2.3125229-17.7081299-2.3973846c-1.1456299-0.0117874-2.2252808-0.5681076-2.8994751-1.4968872
			c-0.6741943-0.9311447-0.8721924-2.1239395-0.5280151-3.2224503c0.4054565-1.3012314,10.277832-32.1725845,38.494873-57.7564812
			c15.8034058-14.3442383,29.1363525-20.6170425,40.8569336-19.1437225c1.989563,0.2498741,3.4039307,2.0673599,3.1540527,4.059288
			S644.2857056,38.2985916,642.2537231,38.0487175z"/>
		<path class="st0" d="M55.0221405,438.4397888c9.2792587-18.7818604,21.3507538-32.8868408,34.1928024-43.4154663
			c-7.304718-15.7506714-4.6400757-34.7294006-2.480484-44.348999c-4.3233109,1.5322571-10.5607529,4.5896912-16.3078766,10.5513306
			c-13.997715,14.5587463-12.2061615,26.2368774-12.1212959,26.7272034
			c0.2451591,1.4520874-0.4054604,2.9301453-1.6548347,3.7103882c-1.2446594,0.7732239-2.8382034,0.7496338-4.040432-0.1107788
			l-13.2386589-9.4905396c-2.5270386,4.8207092-6.1620102,16.2182922,0.9806404,35.2488708
			C43.8835487,426.7266235,49.5316658,433.57724,55.0221405,438.4397888z"/>
		<path class="st0" d="M185.7839661,682.0331421c-1.0937958-1.6690063-0.6364746-3.913147,1.0277863-5.0163574
			c1.6548309-1.0985107,3.9037018-0.6553345,5.0116425,1.0089111c0.1558685,0.2348633,1.9768982,3.0718994,3.4564056,7.2926636
			c-1.0416412-28.0340576-30.298233-33.4776611-31.6451416-33.7086792c-1.640686-0.2828979-2.8853455-1.6359863-3.0173492-3.2955322
			l-0.9523621-11.9044189c-0.1461487-1.8622437,1.1456604-3.53125,2.9843597-3.8659668
			c0.0633545-0.0100098,4.6524506-0.8825073,12.2306213-3.4113159
			c-11.9324188-25.7097168-22.4483795-78.8170166-18.1804657-138.5671997
			c3.9255066-54.7182007,25.0425873-102.2896118,38.2344055-119.5878601
			c-4.4002228-0.3073425-8.8281403-0.5312805-13.3506317-0.5312805c-5.8555603,0-11.8431396,0.3017273-18.0664368,1.0254211
			c-21.3572388,2.4822388-92.6329041,17.1164551-113.1886597,101.2418213
			c-0.0377159,0.1956482-6.713623,34.0654907,0.0330009,67.8905334
			c6.7843437,33.9547119,39.1832275,87.0507812,39.5085373,87.5835571
			c1.1220779,1.9471436,10.4994659,18.4813232,11.6686935,27.6936646c0.3960266,3.1305542,0.7024765,6.2280273,1.0089264,9.2642822
			c1.4096756,14.1014404,2.6260452,26.2792969,11.5131073,33.2663574
			c10.6809769,8.3973389,31.3313141,10.9273071,49.3005066,8.953064c1.432373-10.3889771-0.9871216-19.5880737-1.0133362-19.6882935
			c-0.5327606-1.9282227,0.5987549-3.9225464,2.5223236-4.4552612c1.9329834-0.5280762,3.9225616,0.5892944,4.455307,2.5175781
			c0.122879,0.4381714,2.5845032,9.5264893,1.4998474,20.5221558c4.716095-0.9002075,9.0956879-2.1239014,12.842041-3.6673584
			c2.2733307-0.9335327,4.2030792-1.9539185,5.8269806-3.0259399
			C191.311264,690.706543,185.8426056,682.1235962,185.7839661,682.0331421z"/>
	</g>
	<g id="red_00000173159913271432215910000011690475988964157321_">
		<path class="st1" d="M216.3912964,493.4317322c6.6004639-65.1277771,26.0671387-105.6499634,32.4648895-118.9664001
			c0.3724518-0.7826538,0.7543335-1.5723267,1.0843506-2.2701111c-3.9932709-1.3790283-13.1679382-3.2955017-22.9413452-3.7056885
			c-1.3483887-0.0565796-2.6401825-0.0825195-3.8754272-0.0825195c-10.2684479,0-16.6237488,1.7915649-18.3445892,2.5671387
			c-6.6664734,2.9961243-36.2035828,55.6867371-40.8286285,120.1097107
			c-4.3044586,60.2764282,6.6051788,113.3937378,18.5614624,137.2355957
			c1.5982666,3.1870728,10.5041809,5.454834,19.8909912,7.4302368c9.7451324,2.0603027,18.4200287,2.8759155,23.7098389,3.1965332
			C216.0141144,609.4138184,211.3796539,543.0413818,216.3912964,493.4317322z"/>
		<path class="st1" d="M622.8577271,381.6433411c-10.59375,6.456665-56.4622803,30.9750671-144.7718811,32.9057007
			c-86.0465698,1.8764038-138.6287537-30.6167603-149.5289612-38.0847168
			c-2.1357422,1.5935364-6.143158,5.2992249-10.4617615,12.95578c-6.3175964,11.1618652-1.3530884,26.5456848-1.301239,26.6989136
			c0.2781677,0.8486328,0.240448,1.7797546-0.1178589,2.6000977c-4.0168457,9.2052917-3.4416809,17.9367981,1.7113953,25.9563599
			c16.1145935,25.084137,71.8414307,40.2793884,152.8905029,41.6890564
			c75.4433899,1.2870789,131.5049744-13.703064,150.0711365-40.1426697
			c6.3694458-9.068573,7.7319946-19.1224976,3.9414062-29.0750732c-0.3252563-0.8627625-0.3158569-1.8245544,0.0377197-2.677887
			C625.4224854,414.2378845,634.1539917,392.486969,622.8577271,381.6433411z"/>
		<path class="st1" d="M344.9496155,626.3110352c-2.1875916,4.6061401,1.1362305,32.163147,5.280365,35.3879395
			c13.8421326,4.3893433,78.7106323-2.3761597,84.9575195-10.9898071c2.3243103-3.979126,2.6731873-29.8482666-2.3856201-33.704834
			C425.6639404,612.9403687,351.2530518,618.8383179,344.9496155,626.3110352z"/>
		<path class="st1" d="M480.5610046,493.71698c-3.1022034,0-6.2374268-0.0259399-9.4056702-0.0825195
			c-83.524231-1.4520874-141.43396-17.8660583-158.8874817-45.0269775
			c-6.2185974-9.681488-7.170929-20.5628357-2.7816162-31.5479126c-1.2446594-4.5213318-4.4883423-19.2592163,2.2771606-31.217865
			c3.9349365-6.9726257,7.7263794-11.183075,10.596405-13.7027588c-9.324646,1.4349976-21.2588196,2.7020569-36.7720032,3.5922546
			c-9.2763062,0.5309753-19.4345398,0.4546509-29.3122864,0.0701294c-0.2598877,0.5480652-0.5460052,1.1447754-0.8660126,1.8110046
			c-6.2610168,13.0312195-25.3128052,52.6929626-31.7859802,116.5501709
			c-5.5217133,54.6481018,1.1067657,122.0412292,10.5887451,145.6924133
			c30.0100555,8.5767822,69.924057,15.5308838,105.2922516,13.6977539
			c-2.2945557-10.1535034-3.3014221-23.5132446-1.4906921-29.3352661
			c-2.7878113-16.2044067-5.2609253-34.18396-5.2609253-47.0610352c0-2.0084229,1.6265259-3.6350098,3.6349487-3.6350098
			c2.0084534,0,3.6349792,1.6265869,3.6349792,3.6350098c0,11.1129761,1.9857483,26.5241699,4.3905029,41.1415405
			c2.7807312-1.2307739,6.8079224-2.5161133,12.9828796-3.8394775c18.6115723-3.9923706,58.7079468-7.8135986,74.3263245-5.067627
			c0.9231873-11.8001099,1.6121216-24.9020386,1.6121216-37.8118286c0-2.0084229,1.6265259-3.6350098,3.6349487-3.6350098
			c2.0084534,0,3.6349792,1.6265869,3.6349792,3.6350098c0,14.1296997-0.8126831,28.4910278-1.8605042,41.1704102
			c4.4429321,5.458374,5.684967,17.5670166,5.2167358,27.5507812c31.0127869-7.2266235,63.2817078-18.6498413,89.8942871-37.2793579
			c21.2458496-14.8670044,83.7861938-65.3102417,84.1362915-142.4361267
			C593.6223755,481.8818054,544.9992676,493.71698,480.5610046,493.71698z"/>
		<path class="st1" d="M572.1004028,580.9130249c-13.5309448,13.9502563-26.402771,23.8118286-34.0775757,29.1843872
			c-9.9637451,6.9711914-20.4417114,12.6994629-31.1943054,17.4656372
			c24.1721497-0.0462646,64.6881409-5.6307373,69.5666199-12.3549805c2.3290405-3.979126,2.6826172-29.8458862-2.3856201-33.6882935
			C573.5964355,581.2834473,572.9364014,581.0842285,572.1004028,580.9130249z"/>
	</g>
	<g id="white_00000154408092644659127370000002334111852192076929_">
		<path class="st2" d="M665.6618042,288.6756897c-0.2489624-0.7776184-0.1959229-1.5891113,0.0689697-2.33078
			c-39.3712158-13.208313-54.9504395,17.0574951-94.7023315,11.0463562
			c-8.6702271-1.3100891-15.9215698-16.8309021-31.366394-33.7372437
			c-15.600708-17.0908203-32.3045959-19.8114471-36.5524597-26.9918213
			c-2.8196411-4.7664795-2.5317688-6.6143188-3.1590881-17.8065338
			c-1.7344055-30.7679138,0.8439026-55.1472321,4.0878601-78.0414429
			c4.2520142-30.1046295,9.3644104-44.1332855,12.0328674-49.8329697
			c-14.6497803-2.9934845-25.5776978-3.2368774-36.6794434-3.0730438c-0.0660095,0.004715-0.1461487,0.0070724-0.2215881,0.0023575
			c-0.0565796,0.004715-0.1461487,0.0023575-0.2168579-0.0023575c-12.4751892-0.1882935-23.495636,0.3827667-36.6700439,3.0580215
			c2.6669922,5.6890717,7.783844,19.7150726,12.0299377,49.8479919c3.2247925,22.8942108,5.8320007,47.2735291,4.0828552,78.0414429
			c-0.6223145,11.192215-0.339447,13.0400543-3.158783,17.8065338c-4.2431641,7.1803741-20.9517822,9.901001-36.5574646,26.9918213
			c-15.4492493,16.9063416-22.6720581,32.4271545-31.3566589,33.7372437
			c-39.7693176,6.0111389-55.3314209-24.2532043-94.6999817-11.0475464
			c0.2651978,0.7419739,0.3185425,1.5540466,0.0695496,2.3319702c-0.0613098,0.1909485-5.4783936,17.3050232-2.7156372,33.7402039
			l2.0697327-2.0249329c0.6836243-0.6694946,1.6029663-1.0348511,2.5411682-1.0348511
			c0.2357483,0,0.4714661,0.0235596,0.7071838,0.0683594c1.1739502,0.2333679,2.1593018,1.0301208,2.6307678,2.131012
			c8.6595764,20.1523438,21.2956543,36.5444946,36.1552734,49.8093872
			c12.8252258,8.2933044,63.959137,37.589386,143.8442993,35.9142151
			c94.7854004-2.0703125,140.1550903-31.1380005,142.979187-33.0135498
			c16.3161011-13.7540283,30.2219238-31.0555115,39.5285645-52.7100525c0.4714355-1.1008911,1.4568481-1.8999939,2.635498-2.131012
			c1.1691895-0.2380981,2.3855591,0.1296387,3.2483521,0.9711914l2.0508423,2.0131531
			C671.1401978,305.9759827,665.7230835,288.8666382,665.6618042,288.6756897z M550.1016846,300.8983459H547.09375
			c-0.1414185,0.7637634-0.2687378,1.7090454-0.3771362,2.4916687c-0.8692627,6.245697-2.4675293,17.3495178-13.3087769,23.929657
			c-3.7805786,2.7218323-11.5930176,7.335968-24.3345642,10.4679565
			c2.3128357,11.8106995,0.6447449,27.3439026-7.6641846,35.4660339c-5.0257874,4.9102783-12.3711853,7.6801147-20.291748,7.6801147
			c-0.3630371,0-0.721344-0.0046997-1.0843506-0.01651c-7.925293-0.2522278-15.1528015-3.1776428-19.339386-7.8239136
			c-5.2803955-5.8649902-6.4354553-13.1537781-7.4490967-19.5868835c-0.5374756-3.4086914-1.0466614-6.631134-2.0885925-9.4905396
			c-1.0183716-2.7863464-1.9565735-4.6839905-3.9885559-6.723053c-0.1113892-0.111969-0.2363281-0.2201233-0.353302-0.3309021
			c-12.5871582-3.4328308-19.9405212-8.1047363-23.0144348-10.4199219
			c-9.7283325-6.6493835-11.2131348-17.1452942-12.0485229-23.1449585c-0.108429-0.7849731-0.240448-1.7349854-0.3771667-2.4987488
			h-3.0126343c-2.0414429,0-3.7009888-1.657196-3.7009888-3.7009888c0-2.0437622,1.6595459-3.7009583,3.7009888-3.7009583h5.3699341
			c0.7260742,0,1.4379578,0.2145081,2.0414429,0.6152649c2.3808899,1.5746765,2.7910461,4.5260315,3.3096619,8.2647095
			c0.7290039,5.2226257,1.7040405,12.1248474,7.5230713,16.9735413c0.1205139,0.0765991,0.2586975,0.1031189,0.3724365,0.1956482
			c2.6894226,2.1984863,6.1961975,3.7345581,10.5955505,4.6763306c0.1794434,0.0376892,0.3521118,0.078949,0.5350952,0.114624
			c1.157135,0.2310181,2.4097595,0.3992615,3.6915588,0.5498352c0.3049622,0.0327148,0.574585,0.085144,0.8883972,0.1131592
			c16.2972717,1.4797974,28.3239746-6.7828674,32.8146667-15.2261963l-0.0648193-11.6719055
			c-7.7797241-3.6223145-25.242981-12.7153625-29.0927734-23.0615845c-1.1456604-3.0933838-1.0183411-6.0680237,0.3865967-8.8493347
			c7.9344177-15.9118652,30.65448-16.3411865,32.3847351-16.3600464c0.013855,0,0.04245,0,0.0565796,0
			c0.0188599,0,0.0282898,0,0.0521545,0c1.7252808,0.0188599,24.4591675,0.4481812,32.4083252,16.3600464
			c1.3861084,2.781311,1.5128174,5.7559509,0.3674316,8.8493347c-3.8491821,10.3757019-21.4064331,19.4937744-29.1605225,23.0948792
			l0.0642395,11.5614319c4.4694824,8.471283,16.5657043,16.7828674,32.8694763,15.3033752
			c0.0465698-0.0041504,0.0854492-0.0126953,0.132019-0.0168152c6.5512695-0.6895142,11.5095825-2.3676147,15.1088867-5.1401062
			c0.013855-0.0282898,0.0285645-0.0377197,0.0424194-0.0377197c0.3129272-0.3043823,0.6915894-0.5162659,1.086731-0.687439
			c5.5762329-4.8360291,6.5261841-11.605072,7.2407837-16.7457581c0.5186157-3.7339783,0.928772-6.6829834,3.3002319-8.2576599
			c0.6081543-0.4031067,1.3200684-0.6176147,2.0461426-0.6176147h5.3699341c2.0414429,0,3.7009888,1.657196,3.7009888,3.7009583
			C553.8026733,299.2411499,552.1431274,300.8983459,550.1016846,300.8983459z"/>
		<path class="st2" d="M185.7839661,682.0331421c-1.0937958-1.6690063-0.6364746-3.913147,1.0277863-5.0163574
			c1.6548309-1.0985107,3.9037018-0.6553345,5.0116425,1.0089111c0.1558685,0.2348633,1.9768982,3.0718994,3.4564056,7.2926636
			c-1.0416412-28.0340576-30.298233-33.4776611-31.6451416-33.7086792c-1.640686-0.2828979-2.8853455-1.6359863-3.0173492-3.2955322
			l-0.9119873-11.3987427c-5.8779602,1.1533203-18.746521,3.0874634-36.5663147,2.3808594
			c-14.9889679-0.5887451-24.1824799-2.2211914-29.1452103-3.4272461c3.0818939,6.0924683,6.8326645,14.4028931,7.5445786,20.012085
			c0.3960266,3.1305542,0.7024765,6.2280273,1.0089264,9.2642822c1.4096756,14.1014404,2.6260452,26.2792969,11.5131073,33.2663574
			c10.6809769,8.3973389,31.3313141,10.9273071,49.3005066,8.953064c1.432373-10.3889771-0.9871216-19.5880737-1.0133362-19.6882935
			c-0.5327606-1.9282227,0.5987549-3.9225464,2.5223236-4.4552612c1.9329834-0.5280762,3.9225616,0.5892944,4.455307,2.5175781
			c0.122879,0.4381714,2.5845032,9.5264893,1.4998474,20.5221558c4.716095-0.9002075,9.0956879-2.1239014,12.842041-3.6673584
			c2.2733307-0.9335327,4.2030792-1.9539185,5.8269806-3.0259399
			C191.311264,690.706543,185.8426056,682.1235962,185.7839661,682.0331421z"/>
		<path class="st2" d="M446.361145,686.5874634c-1.15979-1.6218262-0.7920532-3.8848267,0.8297729-5.0493774
			c1.6123962-1.1691895,3.8659973-0.8109131,5.0493469,0.8156738c0.1246643,0.1717529,1.2529297,1.7897339,2.484314,4.3047485
			c-2.1722412-15.418335-13.5583496-22.9089966-21.8440247-26.354187
			c-15.3334045,6.328186-46.532135,9.7678223-67.2808838,9.7678223c-3.5625,0-6.7887573-0.1072388-9.5978088-0.3123169
			c3.8483276,13.6847534,9.9342957,26.0945435,19.4938049,33.6116943
			c10.8268127,8.5134277,32.0932922,10.8545532,50.0887146,8.5408325
			c1.2688293-9.9979248-1.6533508-18.6569214-1.6836853-18.7526855c-0.6647644-1.8858643,0.3252869-3.9508667,2.2064209-4.6203613
			c1.8764343-0.6741943,3.9461365,0.315918,4.6203308,2.1970215c0.1508789,0.4196167,3.1679382,9.133728,2.3057556,19.9074707
			c3.872467-0.835022,7.4912415-1.8870239,10.6358948-3.1799927c2.7733765-1.1409302,5.0414124-2.407959,6.8152771-3.7469482
			C452.263855,695.1020508,446.4244995,686.6782227,446.361145,686.5874634z"/>
		<path class="st2" d="M587.5687866,651.0910645c-1.1644897-1.6218262-0.7967529-3.8848267,0.8250732-5.0540771
			c1.6124268-1.1691895,3.8707275-0.8109131,5.0446167,0.8109131c0.1243896,0.1729736,1.2511597,1.7880249,2.4816895,4.296814
			c-2.1946411-15.3640747-13.5872192-22.8665161-21.8623047-26.3264771
			c-15.3251953,6.3143921-46.4472656,9.7433472-67.1845398,9.7433472c-3.5884094,0-6.8370972-0.1090088-9.6637878-0.3164673
			c3.8494873,13.6912842,9.9384155,26.109314,19.5032349,33.6347046
			c10.8191528,8.4995728,32.0738525,10.8416138,50.0713501,8.5278931c1.281189-9.9899902-1.6501465-18.6531372-1.680481-18.7444458
			c-0.6647949-1.8858643,0.3205566-3.9555664,2.2064209-4.6203613c1.8717041-0.6882935,3.946167,0.3064575,4.6203613,2.1923218
			c0.1467285,0.4196167,3.1740723,9.133667,2.3054199,19.9039307c3.8831177-0.8370972,7.5112915-1.8925781,10.6644897-3.1906128
			c2.756897-1.1353149,5.0142822-2.3953247,6.7819824-3.7263184
			C593.4744263,659.5968628,587.6277466,651.1774292,587.5687866,651.0910645z"/>
	</g>
	<g id="pink_00000117638346004053804330000002694162871504090529_">
		<path class="st3" d="M482.1745911,341.2348938c-0.958252-0.04245-1.7152405-0.8009033-1.7774048-1.7358704
			c-0.2089233-3.3756714-0.8188782-6.727478-1.8867493-9.8789062c-0.8388977-2.4495239-2.1466064-5.4006042-3.8536072-7.2790833
			c-5.6118774,4.8684387-13.3683167,8.6831665-22.6681824,9.8123169c0.0571594,0.0562744,0.1199036,0.1090088,0.1762085,0.1655884
			c2.918335,2.9324951,4.3138733,5.7235718,5.6151123,9.2807312c1.2729492,3.5076904,1.8622742,7.2181091,2.428009,10.8082886
			c0.9476624,5.9946289,1.8387146,11.6568909,5.7235718,15.9684143c2.8806152,3.2012329,8.3731689,5.3063049,14.3277283,5.4949036
			c6.2940369,0.2380981,12.3287354-1.8528442,16.2182922-5.6575623c8.9955139-8.7904053,7.335968-30.2655029,2.6920471-37.5118713
			c-0.0100098-0.0159302-0.0097046-0.0344849-0.0194397-0.0503845c-7.4208069-2.2114563-13.4240112-6.1799927-17.768219-10.7399292
			c2.8517456,5.8973999,2.8535156,13.1856384,2.7377014,19.5435791
			C484.0737,340.4837952,483.2029724,341.2805481,482.1745911,341.2348938z"/>
		<path class="st3" d="M645.2318726,37.519207c-0.1031494-0.0662994-0.2156982-0.1216965-0.3203125-0.1865234
			c-0.7248535,0.5524979-1.6583252,0.8389091-2.6578369,0.7160339c-9.4716797-1.1810112-20.9329224,4.4836082-35.0673828,17.3144531
			c-20.5039062,18.5921135-30.9514771,40.6282539-34.7420654,49.9820671
			c12.9416504,0.6977692,19.6599731,3.5241852,19.9994507,8.4273911c0.1744385,2.5506058-1.1550903,4.7876968-2.6873169,7.3807373
			c-0.4620361,0.7755585-0.9429321,1.5864716-1.3955688,2.4327469c3.4794312-0.1084366,7.4302368,0.6364746,9.7639771,3.2271576
			c1.640686,1.8363419,1.1692505,4.1417923,0.513916,7.3312454c-0.5751953,2.7886963-1.5322266,7.4561768-0.2592773,9.3844452
			c1.3530884,2.0202179,3.7669678,4.5236816,6.8220215,7.6966248c6.8079224,7.0648651,16.1381836,16.743988,24.8837891,32.3540955
			c0.3105469,0.5548553,0.4075317,1.1512604,0.4107666,1.7453003c7.492981-10.4042969,24.4665527-38.4053192,27.4134521-82.1664429
			C661.7047729,46.7221489,645.2318726,37.519207,645.2318726,37.519207z"/>
		<path class="st3" d="M313.1179504,37.519207c0.1031494-0.0662994,0.2156982-0.1216965,0.3203125-0.1865234
			c0.7248535,0.5524979,1.6583557,0.8389091,2.6578674,0.7160339c9.4716797-1.1810112,20.9329224,4.4836082,35.0673523,17.3144531
			c20.5039062,18.5921135,30.9515076,40.6282539,34.7420654,49.9820671
			c-12.9416504,0.6977692-19.6599731,3.5241852-19.9994507,8.4273911c-0.1744385,2.5506058,1.1550903,4.7876968,2.6873474,7.3807373
			c0.4620361,0.7755585,0.9429321,1.5864716,1.3955383,2.4327469c-3.4794006-0.1084366-7.4302673,0.6364746-9.7639771,3.2271576
			c-1.6407166,1.8363419-1.1692505,4.1417923-0.513916,7.3312454c0.5751953,2.7886963,1.5322571,7.4561768,0.2593079,9.3844452
			c-1.3530884,2.0202179-3.7669678,4.5236816-6.822052,7.6966248c-6.8079224,7.0648651-16.1381531,16.743988-24.8837891,32.3540955
			c-0.3105774,0.5548553-0.4075012,1.1512604-0.4107666,1.7453003
			c-7.492981-10.4042969-24.4665222-38.4053192-27.4134521-82.1664429
			C296.6450806,46.7221489,313.1179504,37.519207,313.1179504,37.519207z"/>
	</g>
	<g id="dark_red_00000029728755680003916830000000428533500525956224_">
		<g>
			<path class="st4" d="M554.4155884,597.4154053c0.7139282,12.1480713,1.1456299,21.9898682,1.281189,25.2409058
				c3.4180908-0.6748047,6.5948486-1.3999634,9.37854-2.1705322c-0.2310181-5.3104248-0.7908325-17.3707275-1.6671753-31.0560913
				C560.2929688,592.3339233,557.2800293,594.9949951,554.4155884,597.4154053z"/>
			<path class="st4" d="M528.1884155,616.4954834c0.3518677,3.3291016,0.7428589,6.631958,1.1486206,9.8691406
				c3.1351929-0.2955322,6.2890015-0.6432495,9.40802-1.0330811c-0.5993652-4.7629395-1.1483154-9.7424316-1.6300659-14.6433105
				C534.1765747,612.7164307,531.2075806,614.6705933,528.1884155,616.4954834z"/>
		</g>
		<g>
			<path class="st4" d="M360.3328247,662.9837036c2.844696,0.1104736,6.0585938,0.112854,9.5052795,0.0247803
				c-0.0106201-0.2564087,0.0492249-0.5032959-0.0046997-0.7626343c-1.9556885-9.3013306-4.2487793-27.8336182-5.7214966-41.795105
				c-3.4419861,0.5893555-6.6043091,1.2160645-9.3225708,1.8773193
				C356.2367249,635.8690186,358.4048462,653.246521,360.3328247,662.9837036z"/>
			<path class="st4" d="M421.5828552,615.7010498c-2.8143311-0.0424194-6.0126038-0.0043945-9.4805298,0.1063843
				c1.3784485,19.2076416,2.1908264,37.6503906,2.3862,42.3488159c3.418396-0.6751099,6.5948792-1.4002686,9.3788452-2.1708374
				C423.5862732,649.506958,422.815155,632.9627686,421.5828552,615.7010498z"/>
			<path class="st4" d="M393.5155334,616.8994751c-3.1355286,0.2578125-6.2951965,0.550415-9.4286499,0.8778076
				c0.4390259,6.6593628,1.865509,26.8394165,4.0339355,44.0922852c3.1366882-0.2961426,6.2925415-0.6450195,9.4133301-1.0354614
				C395.4052124,643.9684448,393.9887695,624.0969238,393.5155334,616.8994751z"/>
		</g>
		<g>
			<path class="st4" d="M352.9008179,389.9737854c-3.1531982-1.4697876-6.1092529-2.9083557-8.7099609-4.2679138
				c-1.3781433,5.5930176-8.6080322,36.8335571-8.743866,74.4671631c2.9115906,1.7779846,6.0135193,3.499115,9.46875,5.1106567
				C344.3991699,429.4822998,350.8028259,398.9562988,352.9008179,389.9737854z"/>
			<path class="st4" d="M567.4859619,476.7287292c0.0866699-17.2637939,0.0067749-52.8040771-1.8156738-73.1579895
				c-2.9890747,0.7440186-6.083374,1.4665527-9.3096313,2.1684265c1.7717896,21.1722107,1.7503052,57.6053162,1.6450806,73.2864685
				C561.2612305,478.3084106,564.4265137,477.544342,567.4859619,476.7287292z"/>
			<path class="st4" d="M597.6109619,465.0473633c-0.0050049,0.1140442,0.046814,0.2168579,0.0498047,0.3300171
				c3.449585-1.7968445,6.7091675-3.6679688,9.6069336-5.6728821c0.3724365-12.601593,0.9169922-43.6906738-1.6696167-69.3497314
				c-2.7719116,1.20401-5.7830811,2.4477844-9.1660767,3.7322083
				C599.3250122,425.8950806,597.6292114,464.6486816,597.6109619,465.0473633z"/>
			<path class="st4" d="M512.1035767,485.356781c3.223938-0.2263184,6.3656616-0.5077209,9.4832153-0.8038635
				c0.1915283-8.6595764,0.869812-44.4190979,0.0026245-73.0194702c-3.0645142,0.365387-6.2280273,0.6924744-9.4371948,1.0015564
				C513.0040894,441.5673523,512.265686,478.1245422,512.1035767,485.356781z"/>
			<path class="st4" d="M475.842865,486.3816223l1.5531616-71.8340454
				c-3.2259827,0.0633545-6.3305664,0.0079346-9.4613647-0.0221252l-1.5502319,71.6994019
				c1.6424561,0.0406494,3.2295227,0.1107788,4.8934937,0.139679
				C472.8249207,486.3910522,474.3123779,486.3689575,475.842865,486.3816223z"/>
			<path class="st4" d="M433.3370056,412.3779602c-3.2242126-0.3924866-6.2958069-0.8804626-9.3835754-1.3578186
				c-2.149292,27.0053711-3.5513,62.0479736-3.9325867,72.240387c3.1042786,0.3382874,6.2129822,0.6744995,9.4324951,0.960022
				C429.7915955,475.0064087,431.1626587,439.9693909,433.3370056,412.3779602z"/>
			<path class="st4" d="M390.9926147,403.9258118c-3.1599731-0.8857727-6.2209473-1.7897949-9.1593323-2.728302
				c-0.8872375,5.7465515-5.2397156,35.9537354-5.5264282,74.6495667c3.0497742,0.7484436,6.1991577,1.4580078,9.4469299,2.131012
				C385.8751831,441.5063782,389.7349854,412.4356995,390.9926147,403.9258118z"/>
		</g>
		<g>
			<path class="st4" d="M215.728302,575.555481c-34.884079-0.1815186-48.8947601-5.6063232-49.029129-5.6596069
				c-0.0176849-0.0073853-0.0368347-0.00354-0.0545197-0.0106201c0.5115356,3.5541992,1.0596161,7.0253906,1.6569061,10.3804321
				c7.2257385,1.8737183,22.3997498,4.6915894,48.1928558,4.7637939
				C216.2112579,581.9178467,215.956955,578.7575684,215.728302,575.555481z"/>
			<path class="st4" d="M215.0508575,511.1849365c-27.4417419-1.0151062-46.5716248-4.5183716-51.8216553-5.5782776
				c-0.105484,3.2289429-0.1809235,6.4360657-0.2041931,9.6075134c7.2110138,1.3793335,25.7615814,4.4624023,51.619812,5.4268188
				C214.7497101,517.4586182,214.8826141,514.3042603,215.0508575,511.1849365z"/>
			<path class="st4" d="M164.5313263,484.3796692c5.9427795,0.7449036,27.227829,3.3789062,52.2150269,5.9899292
				c0.3462372-3.1791382,0.7010193-6.3403015,1.1049957-9.3988953c-27.3618927-2.857666-50.5431061-5.7827759-52.2029572-5.9928894
				C165.2243805,478.0776978,164.8457336,481.2099609,164.5313263,484.3796692z"/>
			<path class="st4" d="M214.3899384,542.3433228c-35.5756683-0.0542603-49.6880035-5.4415894-50.2555237-5.6643677
				c-0.2189331-0.0904541-0.4458313-0.0745239-0.6691742-0.1304932c0.1664734,3.4006958,0.3742218,6.7510376,0.6255646,10.0477295
				c6.4543152,1.8416138,22.0838776,5.187561,50.4768066,5.2155151
				C214.4830475,548.6600342,214.4199829,545.5032959,214.3899384,542.3433228z"/>
			<path class="st4" d="M195.0658722,383.9732361c-1.528717,2.6864624-3.1470032,5.7365112-4.816864,9.1378174
				c5.0157623,0.3332825,26.3556213,1.8926392,48.1295166,5.4454041c1.2505493-3.2448425,2.4716339-6.290802,3.6149292-8.9966736
				C223.1461639,386.3779907,204.0999756,384.66922,195.0658722,383.9732361z"/>
			<path class="st4" d="M180.9641418,414.7523499c-1.1191254,2.9764099-2.2223511,6.0691833-3.3002319,9.2748413
				c7.4043121,0.4408264,30.3589325,2.0756226,50.3244629,6.263092c0.8663177-3.1691284,1.7476501-6.1935425,2.6345978-9.1204529
				C211.9044495,417.1768494,190.6659546,415.4006042,180.9641418,414.7523499z"/>
			<path class="st4" d="M169.3272705,454.2290649c3.9832764,0.2024231,28.5980225,1.5920715,51.8800049,5.6560669
				c0.5958099-3.1841431,1.2231445-6.2651367,1.8664093-9.2860413c-21.7067108-3.8049927-44.3678436-5.3213196-51.5499878-5.7297363
				C170.7487335,447.9256287,170.0185547,451.0516968,169.3272705,454.2290649z"/>
			<path class="st4" d="M219.0105591,606.4777832c-28.0334473-0.274353-42.1139526-3.9299316-46.1098938-5.1798706
				c0.9832916,3.7277832,2.0001831,7.305603,3.065094,10.5872192c7.9954071,1.800415,22.2483063,3.9606323,44.5746918,4.0725708
				C219.9970856,612.9202881,219.488205,609.7559204,219.0105591,606.4777832z"/>
		</g>
	</g>
</g>
</svg>
