<?xml version="1.0" encoding="utf-8"?>
<!-- Generator: Adobe Illustrator 26.0.3, SVG Export Plug-In . SVG Version: 6.00 Build 0)  -->
<svg version="1.1" id="Livello_1" xmlns="http://www.w3.org/2000/svg" xmlns:xlink="http://www.w3.org/1999/xlink" x="0px" y="0px"
	 viewBox="0 0 720 720" style="enable-background:new 0 0 720 720;" xml:space="preserve">
<style type="text/css">
	.st0{fill:#D8AD8F;}
	.st1{fill:#F8B692;}
	.st2{fill:#FFFFFF;}
	.st3{fill:#F6BCC8;}
</style>
<g id="_x31_0_00000169555024819553432960000016260772773133812155_">
	<path id="black_00000103261671096542670010000010591661972225269919_" d="M693.0212402,437.895813l-65.8410034-81.0470276
		c-0.1099854-0.1359863-0.2459717-0.2359924-0.3720093-0.3529968c-0.0369873-0.0379944-0.0529785-0.0910034-0.0939941-0.1260071
		c-0.0250244-0.0220032-0.0629883-0.0280151-0.0889893-0.0509949c-0.1010132-0.0820007-0.2009888-0.1570129-0.309021-0.230011
		c-0.0819702-0.0570068-0.1699829-0.0939941-0.2589722-0.144989c-0.2109985-0.1170044-0.4249878-0.2200012-0.6550293-0.29599
		c-0.0819702-0.0289917-0.1610107-0.0409851-0.242981-0.0629883c-0.0120239-0.0029907-0.0239868-0.006012-0.0369873-0.0100098
		c-0.0609741-0.0159912-0.1099854-0.0570068-0.1740112-0.0690002l-57.0059814-11.276001
		c-5.6100464-3.8540039-12.2130737-6.6820068-19.4050903-8.1749878c1.4320068-2.5870056,2.8120117-5.2260132,4.1069946-7.9519958
		l2.7230225,2.6629944c0.9520264,0.927002,2.3070068,1.2919922,3.6079712,0.9710083
		c1.2890015-0.3210144,2.315979-1.2950134,2.7109985-2.5650024c4.2410889-13.598999,2.3129883-28.440033,0.5100098-36.9680176
		l3.2250366,1.1029968c1.2199707,0.4190063,2.5739746,0.1889954,3.5960083-0.6109924
		c1.0189819-0.7969971,1.5609741-2.0580139,1.4459839-3.3469849c-3.4260254-37.9230194-23.6080322-76.710022-28.7420654-86.0580292
		c2.2979736-3.7409973,7.7659912-13.3600006,19.6500244-37.1010132
		c23.5770874-47.1070099,19.0350342-131.0950623-8.5250244-157.6660614
		c-11.9099731-11.458005-34.6890259-17.074007-75.6040039,21.3140068
		c-28.6160278,26.869009-42.0290222,51.6330261-46.2050476,60.347023
		c-26.7290039-8.7060013-43.0769958-10.216011-63.2720337-9.9510117
		c-20.1749878-0.2850037-36.5379944,1.2400055-63.2730408,9.9510117
		c-4.1759949-8.7139969-17.5920105-33.4780159-46.2059937-60.347023
		C217.374054-8.5563612,194.5900421-2.9403586,182.6840363,8.5236464
		c-27.5640106,26.5680122-32.1090088,110.5570526-8.5280151,157.6650543
		c11.8850098,23.7410126,17.3560181,33.3600159,19.6530151,37.1010132
		c-5.1340027,9.3480072-25.3170166,48.1350098-28.7360229,86.0580292c-0.1130066,1.2919922,0.4290009,2.5499878,1.4470062,3.3500061
		c1.0180054,0.7969971,2.3730011,1.0270081,3.598999,0.6080017l3.2140045-1.1000061
		c-1.8059998,8.5249939-3.7339935,23.3660278,0.5070038,36.9650269c0.3939972,1.2669983,1.4210205,2.243988,2.710022,2.5650024
		c1.2949982,0.321991,2.654007-0.0440063,3.6089935-0.9710083l2.7230072-2.6659851
		c1.2920074,2.7200012,2.6690063,5.3540039,4.0970001,7.9360046c-6.826004,0.8760071-13.2620087,2.8959961-18.9410095,5.881012
		l-55.8850098,10.2269897c-0.038002,0.006012-0.0630035,0.0320129-0.0979996,0.0379944
		c-0.1169968,0.0249939-0.2330017,0.0440063-0.3430023,0.07901c-0.1419983,0.0440063-0.2740021,0.1040039-0.4100037,0.1640015
		c-0.1330032,0.0599976-0.2649994,0.1199951-0.3909988,0.1950073c-0.0350037,0.0190125-0.0719986,0.0350037-0.1070023,0.0570068
		c-0.0849991,0.0539856-0.1610031,0.1199951-0.2429962,0.1799927c-0.0660019,0.0469971-0.1419983,0.0849915-0.2050018,0.1390076
		c-0.07901,0.0660095-0.1390076,0.151001-0.2080078,0.223999c-0.0500031,0.0469971-0.1070023,0.0820007-0.1539993,0.1319885
		l-82.888031,92.2290344c-0.9230003,1.0239868-1.2229996,2.4679871-0.7880001,3.7749939
		c0.4379997,1.3089905,1.5410004,2.2789917,2.8929996,2.5469971l79.8750305,15.7730408l0.1289978,188.5330811
		c0,1.7559814,1.1940079,3.2869873,2.8990097,3.7130127l238.6000824,59.9630127
		C351.0201111,719.9619751,351.3321228,720,351.6471252,720c0.303009,0,0.6019897-0.0339966,0.8980103-0.1069946
		l276.7420959-66.6500244c1.7399902-0.4190063,2.960022-1.9879761,2.9349976-3.7810059l-2.7730103-192.2741089
		l61.3959961-13.1260071c1.3049927-0.2770081,2.3699951-1.2170105,2.8140259-2.4750061
		S693.8622437,438.9328308,693.0212402,437.895813z"/>
	<g id="brown_00000183950034497032270260000004962817819990384574_">
		<path class="st0" d="M422.5451355,501.4198608c-0.2680054,0.0570068-0.5350037,0.0849915-0.7999878,0.0849915
			c-1.2550049,0-2.4490051-0.6149902-3.17099-1.6799927l-63.0940247-92.9260254v304.4051208l269.0331116-64.7969971
			l-2.7069702-187.6881104L422.5451355,501.4198608z"/>
		<path class="st0" d="M283.9260559,499.8408508c-0.7219849,1.0559998-1.9100037,1.6640015-3.1579895,1.6640015
			c-0.2460022,0-0.4949951-0.0249939-0.743988-0.071991l-163.2730713-32.2450256l0.1259995,184.0290833l230.9380798,58.0369873
			V406.7858276L283.9260559,499.8408508z"/>
		<path class="st0" d="M237.345047,379.8768005c-1.0679932,5.1789856-3.2299957,9.9090271-6.5240021,13.9750366
			c-7.1450043,8.8309937-18.7170105,13.9779968-34.3940125,15.3049927
			c-2.9029999,0.2420044-5.7200012,0.3680115-8.3739929,0.3680115c-31.3800201,0-40.1360168-17.0849915-41.9580231-31.4150391
			c-0.5359955-4.2609863-0.1130066-8.5849915,1.1719971-12.7609863l-32.9720154-5.3200073L37.313961,445.6898499
			l241.7200928,47.7340393l66.0300293-96.1680298L237.345047,379.8768005z"/>
		<path class="st0" d="M153.1940155,354.0877991c0.5359955-0.6870117,1.1499939-1.3240051,1.7330017-1.9790039
			l-19.4960175,3.5679932l15.0710144,2.4330139C151.309021,356.7347717,152.1860199,355.382782,153.1940155,354.0877991z"/>
		<path class="st0" d="M622.5782471,363.3407898l-38.03302,4.9070129c0.526001,2.928009,0.6459961,5.8959961,0.2960205,8.8370056
			c-1.7490234,14.4470215-10.5009766,31.664032-42.2470703,31.664032c-2.5089722,0-5.1619873-0.1059875-7.8889771-0.3210144
			c-15.4550171-1.2099915-27.381012-6.4330139-34.4880066-15.1029968c-3.1950073-3.8980103-5.348999-8.4150391-6.4920044-13.3590393
			l-135.4050598,17.4730225l65.1460266,95.9470215l259.6581116-55.513031L622.5782471,363.3407898z"/>
		<path class="st0" d="M578.2892456,354.0877991c1.5880127,2.1489868,2.9050293,4.3989868,3.9420166,6.7290039l18.1940308-2.3479919
			L578.2892456,354.0877991z"/>
	</g>
	<path id="orange_00000031887653091472886340000016290200521733165187_" class="st1" d="M534.2381592,200.8057251
		c0.1300049-0.177002,4.1420288-5.7550049,20.2999878-38.0400238
		c23.7820435-47.5160217,15.9790649-126.5930557-6.992981-148.7390594
		c-17.2550049-16.609005-44.9110107,2.4660006-65.0709839,21.3820076
		c-33.6720276,31.6170158-45.7180176,60.6340218-45.8340149,60.9240227
		c-0.7569885,1.8679962-2.8370056,2.8290024-4.7600098,2.1809998c-30.3469849-10.2190018-46.8900146-10.875-63.8860168-10.6419983
		c-0.071991,0.0049973-0.1480103,0.0080032-0.230011,0.0049973c-0.0029907,0-0.0029907,0-0.0029907,0
		c-0.07901,0.0029984-0.1539917,0-0.230011-0.0049973c-16.9660034-0.2269974-33.5379944,0.4219971-63.8840332,10.6419983
		c-1.9230042,0.6409988-3.9930115-0.3119965-4.7590027-2.1780014c-0.1170044-0.2900009-12.2690125-29.4080048-45.8339996-60.927021
		c-20.1610107-18.9210072-47.8230286-37.9880142-65.0680389-21.3800087
		c-22.9750214,22.1430092-30.7780151,101.2220383-6.996994,148.7370605
		c16.1620026,32.2850189,20.173996,37.8630219,20.3339996,38.0840149c0.897995,1.2230072,1.0119934,2.8939972,0.2550049,4.2050018
		c-0.2400055,0.4160004-22.8650055,39.9910126-28.2170105,79.0640259l4.1860199-1.4339905
		c1.3739929-0.4729919,2.8800049-0.1260071,3.9170074,0.8890076c1.0310059,1.0150146,1.3990021,2.5280151,0.9550018,3.9020081
		c-0.0599976,0.1889954-5.352005,16.9049988-2.7550049,33.085022l1.7779999-1.7390137
		c0.7220001-0.7059937,1.6829987-1.0910034,2.6719971-1.0910034c0.2460022,0,0.4949951,0.0249939,0.7409973,0.0759888
		c1.2350006,0.2460022,2.2720032,1.0809937,2.7700043,2.2380066c2.3480072,5.4710083,5.0180054,10.6340027,7.9199982,15.5559998
		c22.332016,0.4729919,40.0130157,13.5209961,42.2470245,31.4179993c0.223999,1.7739868,0.2960052,3.5079956,0.3029938,5.2160034
		l113.6090393,18.3300171l141.1090393-18.210022c-0.0339966-1.894989,0.0249939-3.822998,0.2619934-5.802002
		c2.1719971-18.0809937,20.9269714-31.7149963,43.631012-31.7149963c1.21698,0,2.4420166,0.0469971,3.6690063,0.1260071
		c2.7540283-4.7309875,5.2819824-9.6910095,7.526001-14.9200134c0.4970093-1.1570129,1.5310059-1.9920044,2.7700195-2.2380066
		s2.5159912,0.1390076,3.4130249,1.0150146l1.7810059,1.7430115c2.6190186-16.2180176-2.6939697-32.8960266-2.7550049-33.0830383
		c-0.4470215-1.3800049-0.0780029-2.8900146,0.9520264-3.9049988c1.03302-1.0180054,2.5560303-1.3649902,3.9169922-0.8919983
		l4.1950073,1.4339905c-5.3610229-39.108017-27.9829712-78.6480408-28.2230225-79.0640259
		C533.1771851,203.7107239,533.2901611,202.034729,534.2381592,200.8057251z M267.276062,130.071701
		c-0.9039917,0.901001-2.2090149,1.2969971-3.45401,1.0390015c-3.0820007-0.6179962-6.2470093-0.595993-7.8760071-0.1970062
		c0.0820007,0.4219971,0.1730042,0.875,0.2550049,1.2660065c0.8510132,4.1589966,2.1400146,10.4429932-0.8410034,14.934021
		c-1.723999,2.5950012-4.3430023,5.3130035-7.6620178,8.7559967c-6.4860077,6.7319946-15.3710022,15.9539948-23.5829926,30.6150208
		c-0.6999969,1.2510071-2.0010071,1.9539948-3.3370056,1.9539948c-0.6340027,0-1.272995-0.154007-1.8630066-0.4850006
		c-1.8439941-1.0339966-2.5-3.3589935-1.4689941-5.1999969c8.6950073-15.5240173,17.973999-25.1560211,24.75-32.1860199
		c3.0509949-3.1649933,5.4589996-5.6640167,6.7980042-7.6820221c1.2230225-1.8419952,0.2839966-6.4290009-0.2810059-9.1710052
		c-0.6649933-3.2400055-1.1439972-5.5820007,0.5549927-7.4720001c2.2920227-2.5479965,6.108017-3.2529984,9.5310211-3.2789993
		c-0.3999939-0.7300034-0.8190002-1.4329987-1.2200012-2.1070023c-1.4840088-2.5019989-2.8899994-4.8660049-2.7039948-7.4710083
		c0.1289978-1.9189987,0.5070038-7.473999,19.7889862-8.552002c-3.8420105-9.4360046-14.2139893-31.0970154-34.3940125-49.3970222
		c-14.0279999-12.7210045-25.3899994-18.3370094-34.7310181-17.1670074
		c-2.0330048,0.276001-4.0059967-1.2190018-4.2669983-3.3170013c-0.2619934-2.0929985,1.2230072-4.0040016,3.3150024-4.2660007
		c11.6610107-1.4669991,25.0420074,4.7760029,40.8160248,19.0890102
		c28.1190033,25.4950104,37.9420319,56.2690277,38.3460236,57.5660248c0.3590088,1.1529999,0.1539917,2.4079971-0.5549927,3.3850021
		c-0.7120056,0.9769974-1.8399963,1.5599976-3.0469971,1.5739975c-7.2269897,0.0820007-14.7250061,1.1029968-17.3559875,2.2850037
		c0.3399963,0.6539993,0.9079895,1.6070023,1.3580017,2.3679962c1.5130005,2.5450058,3.3940125,5.7120056,4.1789856,9.6670074
		C268.578064,127.8746948,268.1810608,129.1687012,267.276062,130.071701z M271.2530823,224.9497375
		c0-14.6670227,10.1199951-26.5970154,22.5559998-26.5970154c12.4390259,0,22.5560303,11.9290009,22.5560303,26.5970154
		c0,14.6679993-10.1170044,26.6000061-22.5560303,26.6000061
		C281.3730774,251.5497437,271.2530823,239.6177368,271.2530823,224.9497375z M432.8601379,317.7367859
		c-6.0130005,7.5830078-15.4620056,12.0639954-28.0809937,13.3250122c-1.2919922,0.1260071-2.54599,0.1640015-3.7980042,0.1889954
		c0.0820007,1.4719849,0.0920105,3.1359863-0.0029907,5.0830078c-0.9039917,18.9039917-10.1600037,40.9769897-33.2740173,40.9769897
		c-23.2420044,0-32.4760132-22.5429993-33.3210144-41.8470154c-0.0660095-1.5320129-0.0759888-2.9309998-0.0220032-4.2200012
		c-1.1879883-0.0310059-2.3789978-0.0599976-3.6080017-0.1830139c-12.6220093-1.2609863-22.0709839-5.7420044-28.0840149-13.3280029
		c-8.2539978-10.4160461-6.7380066-22.7580261-6.6690063-23.2810364c0.2799988-2.1149902,2.2630005-3.5830078,4.3269958-3.321991
		c2.1109924,0.2810059,3.598999,2.2189941,3.3190002,4.3309937c-0.0100098,0.0820007-1.1130066,9.7479858,5.1300354,17.5540161
		c4.67099,5.8429871,12.322998,9.32901,22.7420044,10.368988c2.6910095,0.2680054,5.2510071,0.2390137,7.6929932,0.0029907
		c1.4460144-0.1390076,2.8519897-0.3429871,4.2009888-0.6400146c0.0499878-0.0090027,0.0979919-0.0249939,0.144989-0.0350037
		c8.7839966-1.9599915,15.4429932-6.9779968,19.0799866-12.1880188c0.0379944-0.0570068,0.0759888-0.1130066,0.1130066-0.1669922
		c0.4670105-0.6809998,0.8500061-1.3649902,1.2120056-2.0450134v-11.5599976
		c-7.776001-3.6270142-25.0440063-12.6440125-28.8519897-22.9089966c-1.1409912-3.0759888-1.0180054-6.0390015,0.3720093-8.8059998
		c7.901001-15.8330231,30.5130005-16.2590179,32.2210083-16.2750092c0.0029907,0,0.006012,0,0.0159912,0
		c0,0,0.0350037,0,0.0409851,0c0.0159912,0,0.0440063,0,0.0539856,0c0.0029907,0,0.006012,0,0.006012,0
		c1.7179871,0.0160065,24.3240356,0.4409943,32.2260437,16.2750092c1.3930054,2.7669983,1.5100098,5.730011,0.3720093,8.8059998
		c-3.7919922,10.2139893-20.9079895,19.1929932-28.7400208,22.8529968v11.8179932
		c0.3309937,0.605011,0.6650085,1.2070007,1.0780029,1.8129883c0.0409851,0.0599976,0.0820007,0.1229858,0.1229858,0.1860046
		c3.5929871,5.1400452,10.1420288,10.1070251,18.7650146,12.1150208c0.1260071,0.0310059,0.2460022,0.0629883,0.3720093,0.0910034
		c1.322998,0.2929993,2.70401,0.5069885,4.1220093,0.6520081c2.4960022,0.2520142,5.1180115,0.2900085,7.8729858,0.0130005
		c10.4219971-1.0400085,18.0740051-4.526001,22.7449951-10.368988c6.2430115-7.8060303,5.1409912-17.4760437,5.1279907-17.5730286
		c-0.2590027-2.105011,1.2319946-4.0339966,3.3410034-4.3049927c2.1210022-0.2520142,4.0339966,1.2099915,4.3120117,3.3150024
		C439.6021423,294.975769,441.1181335,307.317749,432.8601379,317.7367859z M441.7201233,251.5497437
		c-12.4370117,0-22.5599976-11.9320068-22.5599976-26.6000061c0-14.6680145,10.1229858-26.5970154,22.5599976-26.5970154
		c12.4390259,0,22.5600281,11.9290009,22.5600281,26.5970154
		C464.2801514,239.6177368,454.1591492,251.5497437,441.7201233,251.5497437z M529.9871826,38.2686577
		c-9.3109741-1.1580009-20.7030029,4.446003-34.7189941,17.166008
		c-20.1860046,18.3010063-30.5610046,39.9620171-34.4089966,49.3980217
		c19.2910156,1.0780029,19.6690063,6.6340027,19.802002,8.5620041c0.177002,2.5979996-1.2260132,4.9590073-2.7070007,7.4580078
		c-0.4030151,0.6760025-0.8190002,1.3799973-1.2229919,2.1100006c3.4219971,0.0250015,7.2349854,0.7289963,9.5270081,3.2740021
		c1.7009888,1.8960037,1.2229919,4.2360001,0.5580139,7.4760056c-0.5639954,2.7400055-1.5039978,7.3289948-0.2770081,9.1710052
		c1.3389893,2.0200043,3.7470093,4.5190125,6.7980042,7.684021c6.7720032,7.029007,16.0509949,16.6609955,24.7459717,32.1860199
		c1.0310059,1.8410034,0.375,4.1669922-1.4680176,5.1999969c-0.5900269,0.3309937-1.2290039,0.4850006-1.8629761,0.4850006
		c-1.3359985,0-2.6380005-0.6999969-3.3370056-1.9539948c-8.2139893-14.6620178-17.0979919-23.8830109-23.5840149-30.6170197
		c-3.3150024-3.4409943-5.9349976-6.1600037-7.6579895-8.753006c-2.9880066-4.4910126-1.6950073-10.7790222-0.8450012-14.9390106
		c0.0820007-0.3910065,0.1730042-0.8430023,0.2550049-1.2649994c-1.6289978-0.3959961-4.7929993-0.4190063-7.8760071,0.1999969
		c-1.2349854,0.25-2.5499878-0.1360016-3.4570007-1.0399933c-0.9039917-0.9029999-1.2990112-2.1969986-1.0499878-3.4509964
		c0.7879944-3.9550018,2.6700134-7.1240005,4.1830139-9.6690063c0.4410095-0.7440033,0.9930115-1.6719971,1.3359985-2.3700027
		c-2.6690063-1.1689987-10.2650146-2.2030029-17.3399963-2.2799988c-1.2099915-0.0139999-2.3390198-0.5970001-3.0510254-1.5739975
		c-0.7090149-0.9769974-0.9169922-2.2330017-0.5549927-3.3850021c0.4030151-1.2979965,10.2390442-32.0710144,38.3610229-57.5660248
		c15.7579956-14.3090057,29.0869751-20.5630093,40.8040161-19.0890102c2.0930176,0.2630005,3.5770264,2.1730022,3.315979,4.267004
		C533.9931641,37.0486565,532.0581665,38.5436554,529.9871826,38.2686577z"/>
	<g id="white_00000148641755849296145360000008716085890139864219_">
		<path class="st2" d="M571.5952148,357.856781c-6.4450073-8.1629944-17.0600586-13.6459961-29.1270752-15.0490112
			c-1.9130249-0.2170105-3.8519897-0.3280029-5.7620239-0.3280029c-18.8369751,0-34.3330078,10.7369995-36.0419922,24.9790039
			c-0.6839905,5.7139893-0.2929993,14,5.4620056,21.019043c2.3829956,2.9049988,5.5440063,5.3070068,9.32901,7.2349854
			c0.5830078-8.7890015,3.3029785-18.6540222,3.4379883-19.1360168c0.5700073-2.0329895,2.6879883-3.2189941,4.7050171-2.6539917
			c2.03302,0.5669861,3.2210083,2.6730042,2.6569824,4.7049866c-0.0319824,0.1229858-3.2299805,11.7250366-3.2659912,20.0100403
			c3.7189941,1.0679932,7.8129883,1.8150024,12.3129883,2.1690063c1.9890137,0.1570129,3.9050293,0.2330017,5.7680054,0.2680054
			c3.1359863-5.697998,5.2919922-15.3670349,5.9000244-18.9470215c0.3499756-2.0830078,2.3250122-3.5020142,4.4019775-3.1300049
			c2.0800171,0.3500061,3.4819946,2.322998,3.1329956,4.4029846c-0.085022,0.4970093-1.6640015,9.6310425-4.835022,17.3550415
			c16.7350464-1.6950073,25.7900391-9.776001,27.5800781-24.5860291
			C578.0092163,369.8397827,576.0512085,363.5047913,571.5952148,357.856781z"/>
		<path class="st2" d="M493.0751648,366.5527954c2.1719971-18.0809937,20.9269714-31.7149963,43.631012-31.7149963
			c1.197998,0,2.40802,0.0440063,3.617981,0.1199951c2.7680054-4.7279968,5.3259888-9.6759949,7.5770264-14.9140015
			c0.4970093-1.1570129,1.5310059-1.9920044,2.7700195-2.2380066s2.5159912,0.1390076,3.4130249,1.0150146l1.7810059,1.7430115
			c2.6190186-16.2180176-2.6939697-32.8960266-2.7550049-33.0830383c-0.2680054-0.8190002-0.2109985-1.677002,0.065979-2.4580078
			c-39.0289917-12.9909973-54.5289917,17.0280151-94.0280151,11.0589905
			c-8.6390381-1.2980042-15.8340149-16.7350159-31.2010193-33.5580139
			c-15.5209961-17.006012-32.1440125-19.7170105-36.3699951-26.858017
			c-2.8110046-4.7460022-2.5239868-6.5870056-3.151001-17.7120209c-1.723999-30.6210022,0.8540039-54.8730164,4.0679932-77.6490326
			c4.177002-29.5770035,9.196991-43.5830154,11.8789978-49.3860168
			c-14.5169983-2.9560013-25.3640442-3.1969986-36.3790283-3.0459976c-0.071991,0.0049973-0.1480103,0.0080032-0.230011,0.0049973
			c-0.0029907,0-0.0029907,0-0.0029907,0c-0.07901,0.0029984-0.1539917,0-0.230011-0.0049973
			c-10.993988-0.1460037-21.8479919,0.0910034-36.3710022,3.0479965
			c2.6789856,5.8050003,7.6960144,19.8110123,11.8789978,49.3840179
			c3.2109985,22.7760162,5.7890015,47.0280304,4.0620117,77.6490326
			c-0.6270142,11.1250153-0.3370056,12.9660187-3.1419983,17.7120209
			c-4.2319946,7.1419983-20.8540039,9.852005-36.3789978,26.858017
			c-15.3580322,16.822998-22.5600281,32.2600098-31.1980286,33.5579834
			c-39.4960175,5.9729919-54.9930115-24.0499878-94.0320282-11.0589905
			c0.2799988,0.7820129,0.3339996,1.6359863,0.0690002,2.4519958c-0.0599976,0.1889954-5.352005,16.9049988-2.7550049,33.085022
			l1.7779999-1.7390137c0.7220001-0.7059937,1.6829987-1.0910034,2.6719971-1.0910034
			c0.2460022,0,0.4949951,0.0249939,0.7409973,0.0759888c1.2350006,0.2460022,2.2720032,1.0809937,2.7700043,2.2380066
			c2.3540039,5.480011,5.048996,10.6369934,7.970993,15.5599976c22.3100128,0.4880066,39.9660187,13.5299988,42.1970062,31.4150085
			c0.223999,1.7770081,0.2960052,3.5079956,0.3029938,5.2200012l113.6090393,18.3260193l141.1090393-18.210022
			C492.7791748,370.4597778,492.8391724,368.5307922,493.0751648,366.5527954z M432.8601379,317.7367859
			c-6.0130005,7.5830078-15.4620056,12.0639954-28.0809937,13.3250122c-1.2919922,0.1260071-2.54599,0.1640015-3.7980042,0.1889954
			c0.0820007,1.4719849,0.0920105,3.1359863-0.0029907,5.0830078
			c-0.9039917,18.9039917-10.1600037,40.9769897-33.2740173,40.9769897c-23.2420044,0-32.4760132-22.5429993-33.3210144-41.8470154
			c-0.0660095-1.5320129-0.0759888-2.9309998-0.0220032-4.2200012c-1.1879883-0.0310059-2.3789978-0.0599976-3.6080017-0.1830139
			c-12.6220093-1.2609863-22.0709839-5.7420044-28.0840149-13.3280029
			c-8.2539978-10.4160461-6.7380066-22.7580261-6.6690063-23.2810364c0.2799988-2.1149902,2.2630005-3.5830078,4.3269958-3.321991
			c2.1109924,0.2810059,3.598999,2.2189941,3.3190002,4.3309937c-0.0100098,0.0820007-1.1130066,9.7479858,5.1300354,17.5540161
			c4.67099,5.8429871,12.322998,9.32901,22.7420044,10.368988c2.6910095,0.2680054,5.2510071,0.2390137,7.6929932,0.0029907
			c1.4460144-0.1390076,2.8519897-0.3429871,4.2009888-0.6400146c0.0499878-0.0090027,0.0979919-0.0249939,0.144989-0.0350037
			c8.7839966-1.9599915,15.4429932-6.9779968,19.0799866-12.1880188c0.0379944-0.0570068,0.0759888-0.1130066,0.1130066-0.1669922
			c0.4670105-0.6809998,0.8500061-1.3649902,1.2120056-2.0450134v-11.5599976
			c-7.776001-3.6270142-25.0440063-12.6440125-28.8519897-22.9089966c-1.1409912-3.0759888-1.0180054-6.0390015,0.3720093-8.8059998
			c7.901001-15.8330231,30.5130005-16.2590179,32.2210083-16.2750092c0.0029907,0,0.006012,0,0.0159912,0
			c0,0,0.0350037,0,0.0409851,0c0.0159912,0,0.0440063,0,0.0539856,0c0.0029907,0,0.006012,0,0.006012,0
			c1.7179871,0.0160065,24.3240356,0.4409943,32.2260437,16.2750092c1.3930054,2.7669983,1.5100098,5.730011,0.3720093,8.8059998
			c-3.7919922,10.2139893-20.9079895,19.1929932-28.7400208,22.8529968v11.8179932
			c0.3309937,0.605011,0.6650085,1.2070007,1.0780029,1.8129883c0.0409851,0.0599976,0.0820007,0.1229858,0.1229858,0.1860046
			c3.5929871,5.1400452,10.1420288,10.1070251,18.7650146,12.1150208c0.1260071,0.0310059,0.2460022,0.0629883,0.3720093,0.0910034
			c1.322998,0.2929993,2.70401,0.5069885,4.1220093,0.6520081c2.4960022,0.2520142,5.1180115,0.2900085,7.8729858,0.0130005
			c10.4219971-1.0400085,18.0740051-4.526001,22.7449951-10.368988c6.2430115-7.8060303,5.1409912-17.4760437,5.1279907-17.5730286
			c-0.2590027-2.105011,1.2319946-4.0339966,3.3410034-4.3049927c2.1210022-0.2520142,4.0339966,1.2099915,4.3120117,3.3150024
			C439.6021423,294.975769,441.1181335,307.317749,432.8601379,317.7367859z"/>
		<path class="st2" d="M230.2100525,367.9677734c-1.7649994-14.1229858-17.197998-24.7720032-35.9030151-24.7720032
			c-2.0010071,0-4.0370026,0.1229858-6.0509949,0.3659973c-12.0549927,1.4750061-22.6410217,7.0249939-29.03302,15.2250061
			c-4.4250031,5.6730042-6.3410034,12.0239868-5.5429993,18.3649902
			c1.878006,14.7710266,11.0529938,22.8120422,27.7470093,24.4120178
			c-3.2180023-7.7120056-4.8560028-16.8360291-4.9450073-17.3300171c-0.3650055-2.0799866,1.0240021-4.0599976,3.102005-4.4259949
			c2.102005-0.3580017,4.0559998,1.0280151,4.4250031,3.1019897c0.6329956,3.5770264,2.852005,13.23703,6.0200043,18.9290466
			c1.8560028-0.0469971,3.7599945-0.1289978,5.7610016-0.29599c4.4909973-0.3819885,8.5749969-1.1539917,12.2819977-2.2409973
			c-0.0850067-8.2789917-3.3470001-19.8990173-3.378006-20.0200195c-0.5769958-2.0289917,0.602005-4.1409912,2.6309967-4.7179871
			c2.026001-0.5889893,4.1410065,0.598999,4.7180023,2.6319885c0.1390076,0.4819946,2.9150085,10.3590393,3.5480194,19.1400146
			c3.779007-1.9500122,6.9309998-4.3710022,9.2940063-7.2890015
			C230.5910492,381.9917908,230.9320526,373.6897888,230.2100525,367.9677734z"/>
	</g>
	<g id="pink_00000139272804656877203290000007563618131755483575_">
		<path class="st3" d="M393.2071228,330.7967834c-9.2120056-1.3739929-16.4070435-5.4119873-21.5290222-10.1040039v15.5150146
			c0,2.1300049-1.7269897,3.8580017-3.8569946,3.8580017s-3.8569946-1.7279968-3.8569946-3.8580017v-15.6229858
			c-5.1610107,4.7709961-12.4570007,8.8840027-21.8389893,10.2430115
			c-0.3720093,5.2000122,0.6809998,19.8139954,7.7619934,29.5970154c4.4689941,6.17099,10.29599,9.17099,17.8179932,9.17099
			c7.7399902,0,13.6780396-3.0629883,18.1530151-9.3699951
			C392.8321228,350.3997803,393.6641235,335.8807983,393.2071228,330.7967834z"/>
		<path class="st3" d="M534.097168,35.4176559c-0.4790039,1.8310013-2.2059937,3.1040001-4.1090088,2.8510017
			c-9.3109741-1.1580009-20.7030029,4.446003-34.7189941,17.166008
			c-20.1860046,18.3010063-30.5610046,39.9620171-34.4089966,49.3980217
			c19.2910156,1.0780029,19.6690063,6.6340027,19.802002,8.5620041c0.177002,2.5979996-1.2260132,4.9590073-2.7070007,7.4580078
			c-0.4030151,0.6760025-0.8190002,1.3799973-1.2229919,2.1100006c3.4219971,0.0250015,7.2349854,0.7289963,9.5270081,3.2740021
			c1.7009888,1.8960037,1.2229919,4.2360001,0.5580139,7.4760056c-0.5639954,2.7400055-1.5039978,7.3289948-0.2770081,9.1710052
			c1.3389893,2.0200043,3.7470093,4.5190125,6.7980042,7.684021c6.7160034,6.9700012,15.8909912,16.5130005,24.5200195,31.8009949
			c7.1950073-8.9759979,24.7369995-35.0740051,27.7440186-79.5250244
			C548.755188,55.7546654,537.7401733,39.4556618,534.097168,35.4176559z"/>
		<path class="st3" d="M242.1950531,150.5667114c3.0509949-3.1649933,5.4589996-5.6640167,6.7980042-7.6820221
			c1.2230225-1.8419952,0.2839966-6.4290009-0.2810059-9.1710052c-0.6649933-3.2400055-1.1439972-5.5820007,0.5549927-7.4720001
			c2.2920227-2.5479965,6.108017-3.2529984,9.5310211-3.2789993c-0.3999939-0.7300034-0.8190002-1.4329987-1.2200012-2.1070023
			c-1.4840088-2.5019989-2.8899994-4.8660049-2.7039948-7.4710083c0.1289978-1.9189987,0.5070038-7.473999,19.7889862-8.552002
			c-3.8420105-9.4360046-14.2139893-31.0970154-34.3940125-49.3970222
			c-14.0279999-12.7210045-25.3899994-18.3370094-34.7310181-17.1670074c-1.8690033,0.2540016-3.625-1.0200005-4.1060028-2.8510017
			c-3.6439972,4.0410042-14.6580048,20.3410072-11.5,67.426033c3.003006,44.4510193,20.5449982,70.5490265,27.7410126,79.5250244
			C226.3020477,167.0797119,235.476059,157.5367126,242.1950531,150.5667114z"/>
	</g>
</g>
</svg>
