<?xml version="1.0" encoding="utf-8"?>
<!-- Generator: Adobe Illustrator 26.0.3, SVG Export Plug-In . SVG Version: 6.00 Build 0)  -->
<svg version="1.1" id="Livello_1" xmlns="http://www.w3.org/2000/svg" xmlns:xlink="http://www.w3.org/1999/xlink" x="0px" y="0px"
	 viewBox="0 0 720 720" style="enable-background:new 0 0 720 720;" xml:space="preserve">
<style type="text/css">
	.st0{fill:#F8B692;}
	.st1{fill:#FFFFFF;}
	.st2{fill:#F6BCC8;}
</style>
<g id="_x31__00000168104744671131151860000001919982920606674340_">
	<g id="black_00000097476659138909552000000014922395252906859426_">
		<path d="M5.9250441,605.2789917h40.3903313c4.9145317,18.6864014,19.7288589,37.5917969,59.59375,37.5917969
			c3.8709488,0,7.9791336-0.1813354,12.2070694-0.5383301c22.8584595-1.9320068,39.7325897-9.4389648,50.1604309-22.3052979
			c3.5801086-4.4195557,6.2215881-9.3887939,8.0065155-14.7493286h148.3279724
			c7.8308716,10.7734375,19.3182678,18.1971436,35.4339294,18.1971436c16.2262878,0,27.7615967-7.4396973,35.5878906-18.1971436
			h148.6906738c1.8180542,5.0685425,4.4195557,9.774353,7.8674316,13.9749146
			c10.3674316,12.6404419,27.7581787,20.2512207,50.2927246,22.0189819
			c3.9702148,0.3079834,7.8411255,0.4675903,11.4987793,0.4675903h0.0056763c0.2578125,0,0.4779053-0.0228271,0.7299805-0.0273438
			c0.0615845,0.0056763,0.116333,0.0273438,0.1699219,0.0273438s0.0991821-0.0330811,0.1539917-0.0387573
			c38.4871216-0.3296509,53.3903809-18.2302246,58.5717773-36.4227905h40.4610596
			c3.2733154,0,5.9250488-2.6517334,5.9250488-5.9238892s-2.6517334-5.9250488-5.9250488-5.9250488h-38.3464966
			c0.784668-11.3870239-2.9311523-22.9577026-10.7015991-32.8027344
			c-5.9352417-7.5229492-13.8699341-13.684021-23.0397949-18.2199097
			c2.9540405-16.7749023,0.6751709-33.5885925-1.5214233-43.9000854l4.7879028,1.6366577
			c1.7245483,0.5975952,3.6565552,0.2737122,5.1118774-0.8679504c1.449585-1.1371155,2.2228394-2.9266052,2.0540771-4.7605591
			c-4.8597412-53.8283997-33.1277466-108.8759766-41.0795288-123.4610291
			c5.0628662-5.7322998,15.4906006-20.0254211,32.6270752-54.2834473
			c36.0270386-71.9707489,20.762146-191.0293579-16.928894-227.368866
			c-17.1535034-16.51371-50.0007324-24.5840912-108.9797363,30.7440796
			c-41.3475342,38.8213043-60.6818237,74.5916901-66.6661377,87.1032715
			c-38.6787415-12.6039734-62.2306213-14.8143158-91.2559509-14.3672333
			c-29.1678467-0.4117279-52.7573853,1.7655334-91.4087524,14.3672333
			c-5.9900818-12.5115967-25.3356781-48.2819824-66.6718597-87.1032867
			C143.0767059,64.8122482,110.235199,72.8837662,93.0645523,89.403183
			c-37.695591,36.3258209-52.9661331,155.3844299-16.9288635,227.3665924
			c17.1489868,34.2523499,27.5756836,48.5511475,32.6327972,54.2834473
			c-7.9563217,14.5850525-36.2243195,69.6315308-41.0784073,123.4610291
			c-0.1699371,1.8328247,0.6033401,3.6291504,2.0529556,4.7605591c1.4553146,1.1416931,3.3771057,1.4656067,5.1175461,0.8679504
			l4.7719727-1.6366577c-2.2399979,10.5419006-4.5963287,27.87677-1.3344193,45.0314941
			c-9.2633667,4.5951538-17.2641754,10.8497925-23.2211533,18.487915
			c-7.3746605,9.4606934-11.0528603,20.4816284-10.6137543,31.4021606H5.9250441C2.6517284,593.4276733,0,596.0805054,0,599.3527222
			S2.6517282,605.2789917,5.9250441,605.2789917z"/>
	</g>
	<path id="orange_00000171706673188816530590000014766969213533682345_" class="st0" d="M601.4937134,365.6733704
		c0.2531738-0.2144165,10.0150146-8.313324,32.7537231-53.7622375
		c33.5771484-67.075592,19.7243042-181.4477692-14.7493286-214.6816101
		c-24.951355-24.0149612-64.8869019,3.5253754-94.0057373,30.8398895
		c-48.591095,45.6245422-65.9578857,87.5047455-66.1278381,87.9221802
		c-1.0869446,2.6631317-4.0408936,4.0146637-6.7713318,3.1056519
		c-44.0152893-14.8234253-67.9674988-15.7267456-92.4569397-15.3469391
		c-24.7426147-0.3592682-48.6389465,0.5269318-92.6109009,15.3446655c-2.7235718,0.9283905-5.6832581-0.4470825-6.765625-3.0942535
		c-0.1699219-0.4197083-17.70784-42.4424744-66.1392365-87.9324341
		c-29.1188354-27.3213577-69.0715332-54.8411636-94.0171585-30.8353271
		c-34.4770279,33.223587-48.3367233,147.5923309-14.7481689,214.6736603
		c22.7546844,45.4545898,32.5062027,53.5534973,32.9122162,53.8774109c2.1031265,1.6742554,2.7897339,4.7331848,1.4439163,7.0610046
		c-0.3455734,0.5976257-33.0445251,57.8042603-40.7430878,114.2341614l6.1611328-2.1145325
		c1.9548645-0.6752014,4.102478-0.1699219,5.5680618,1.2625427c1.4667206,1.4450684,1.9936447,3.5903931,1.3617935,5.5509644
		c-0.0878296,0.269165-7.6654892,24.2373962-3.9872894,47.5246887c0.2360916-0.0753174,0.4664688-0.1744995,0.7082672-0.2578125
		l9.1367722-2.3505859c2.1191101-0.428894,4.2610092-0.8132324,6.4462585-1.0812378
		c3.3828125-0.4060059,6.7975616-0.6101685,10.1586838-0.6101685c33.4288788,0,60.1047058,19.2954102,63.4213409,45.8777466
		c0.5440369,4.3271484,0.5873718,8.5060425,0.2463684,12.546936h139.2140198
		c-4.2496338-9.8666992-6.4131775-20.991394-6.8796997-31.4683228c-0.1049194-2.3015747-0.1208801-4.4035645-0.0387573-6.3322144
		c-1.7677917-0.043335-3.5368042-0.0878296-5.3593445-0.2736816c-18.5700989-1.8510742-32.4742432-8.444458-41.3144836-19.6033936
		c-12.1454773-15.326416-9.9226227-33.4836426-9.8233948-34.2523804c0.4014587-3.0748596,3.1467285-5.2715149,6.315094-4.843811
		c3.0805664,0.4060059,5.2441406,3.2345276,4.8438416,6.315094c-0.0171204,0.1152039-1.6469421,14.3797913,7.5662537,25.9013977
		c6.8910828,8.6154785,18.1697693,13.7592773,33.5338135,15.2921753c4.0739746,0.3945923,7.9449463,0.3398438,11.6356812-0.0387573
		c1.9160767-0.1973267,3.7888184-0.4664917,5.5897217-0.8508911c0.3672485-0.076355,0.7242432-0.1755981,1.0926514-0.2634277
		c1.9000854-0.4448242,3.7614441-0.9557495,5.5235596-1.5864868c0.0114136-0.0056763,0.0216675-0.0056763,0.0330505-0.0114136
		c9.9169006-3.5527344,17.4888611-9.7686157,21.9802551-16.1772461c0.0775757-0.116272,0.1482849-0.2246704,0.2201233-0.3352661
		c0.6808777-0.9934082,1.246582-1.9925537,1.7735291-2.9813843v-17.0109863
		c-11.4269714-5.3205872-36.9382935-18.6248169-42.5610962-33.7641907
		c-1.6742859-4.5301819-1.4940796-8.8961182,0.5542908-12.9758301
		c11.6356812-23.3146362,44.9379578-23.9465332,47.4528198-23.9681702c0.0102539,0,0.0102539,0,0.0273438,0
		c0,0,0.0490417,0,0.0604553,0c0.0227966,0,0.0661621,0,0.0775452,0c0.0045776,0,0.0045776,0,0.0102844,0
		c2.5319519,0.0227966,35.8285522,0.6535339,47.4642029,23.9682312c2.0484009,4.0796509,2.2240601,8.4455872,0.5440369,12.9757996
		c-5.595459,15.0663757-30.8752747,28.305603-42.385437,33.6809387v17.3839417
		c0.4949646,0.9124146,1.0002441,1.8179932,1.6206665,2.7304077c0.0490417,0.0718384,0.0935364,0.1425781,0.1425781,0.2144165
		c5.2543945,7.5388794,14.8371277,14.8143311,27.4388428,17.8241577c0.3181763,0.0718384,0.6318359,0.159729,0.9557495,0.2304077
		c1.8339844,0.4014282,3.7443542,0.6911621,5.6992493,0.8999023c3.7454834,0.3956909,7.681427,0.4607544,11.8226929,0.0558472
		c15.4290771-1.5442505,26.7408447-6.72229,33.6262207-15.402832c9.2189026-11.6299438,7.5000916-25.6539001,7.4784546-25.790741
		c-0.4003601-3.0805664,1.7632446-5.9090881,4.843811-6.315094c3.1467285-0.4277039,5.9079285,1.7689514,6.3139954,4.843811
		c0.0992126,0.7687378,2.3232422,18.927063-9.8233948,34.2523804
		c-8.8459473,11.1577759-22.7478333,17.7511597-41.3201904,19.6033936
		c-1.9160767,0.1915894-3.7820129,0.2531738-5.6387634,0.2850952c0.1265869,2.1852417,0.1322937,4.6567993-0.0057068,7.5617065
		c-0.4836121,10.0595093-2.6083984,20.7062988-6.6869507,30.227417h139.3668518
		c-0.4402466-4.2438965-0.4516602-8.6531982,0.0923462-13.2221069c3.168396-26.3735962,30.5250854-46.2564087,63.6357422-46.2564087
		c3.2014771,0,6.4577026,0.1859131,9.6705933,0.5542603c2.8170166,0.3296509,5.5794678,0.8178101,8.2961426,1.4051514
		c0.2087402-0.0718384,0.3729858-0.236084,0.5976562-0.2805786c1.7461548-0.3341675,3.5755615,0.192749,4.8540649,1.449585
		l0.309082,0.3022461c0.8668213,0.2532349,1.7073364,0.5440674,2.5581665,0.8234863
		c3.3006592-22.9793701-4.0682983-46.1514893-4.1572266-46.4206543c-0.6376343-1.954834-0.1106567-4.1070557,1.3560791-5.5509338
		c1.4655762-1.4393616,3.6348877-1.9434814,5.5681152-1.26828l6.1828003,2.114563
		c-7.7099609-56.4801025-40.3974609-113.6365662-40.7442017-114.2341919
		C598.4849854,370.4008789,599.1818237,367.2826538,601.4937134,365.6733704z M215.0097656,264.6556702
		c-1.2796783,1.2842407-3.1296234,1.8476257-4.9145508,1.4769592c-4.3933258-0.8873291-9.0991364-0.8485413-11.4588776-0.2611694
		c0.1208954,0.6341248,0.2577515,1.3207397,0.3786469,1.9081116c1.2249451,5.9854736,3.0748749,15.0127563-1.186142,21.4590454
		c-2.4931946,3.7443542-6.2649078,7.6654663-11.0426025,12.6176453
		c-9.367157,9.7184448-22.1889801,23.0295715-34.0664368,44.2080383c-0.9945374,1.7734985-2.8444824,2.772644-4.7445984,2.772644
		c-0.9010162,0-1.8111572-0.2189941-2.6517334-0.6911621c-2.6186523-1.4667053-3.5470428-4.7776794-2.0814514-7.3963318
		c12.5583496-22.3976746,25.9458771-36.2893372,35.7190704-46.4320374
		c4.3978729-4.5621033,7.8742065-8.1707458,9.8131104-11.0859375c1.7678223-2.6688232,0.4060364-9.3021545-0.401474-13.2666321
		c-0.9546204-4.6613464-1.6469269-8.0304565,0.7801208-10.7323608c3.3166656-3.6839142,8.8676147-4.6807404,13.8152313-4.700119
		c-0.5987701-1.0949249-1.2249298-2.1521759-1.8225708-3.1626892c-2.141922-3.6051941-4.1572266-7.0062714-3.8880615-10.7426453
		c0.1870575-2.7429657,0.7242279-10.7266541,28.5976105-12.2663727
		c-5.5190125-13.5631714-20.4930115-44.9162903-49.6996613-71.3913727
		c-20.2455139-18.3784637-36.6691132-26.5058746-50.1604233-24.7950745
		c-2.9870453,0.3672485-5.6946487-1.740448-6.0676193-4.7172318c-0.3740921-2.9790573,1.740448-5.6946564,4.7160797-6.0676117
		c16.8581543-2.0837402,36.0874634,6.8990555,58.8147583,27.5323563
		c40.5514679,36.7614899,54.728241,81.1383209,55.3156128,83.0099182c0.5109558,1.6389313,0.2144165,3.4215851-0.7960815,4.8096008
		c-1.0048065,1.3891602-2.6141052,2.2217407-4.3317413,2.2400055c-10.5156708,0.1208954-21.408844,1.6172638-25.1543427,3.3417358
		c0.4892883,0.9614716,1.3287201,2.374588,1.9982147,3.5002899c2.1749725,3.6679382,4.8814545,8.2334595,6.0128632,13.9247131
		C216.8596954,261.5306091,216.2940063,263.3725586,215.0097656,264.6556702z M253.3474884,439.9616699
		c-17.9393768,0-32.5347137-17.2139587-32.5347137-38.3764954c0-21.151123,14.5953369-38.3605347,32.5347137-38.3605347
		c17.9496307,0,32.5506744,17.208313,32.5506744,38.3605347
		C285.8981323,422.7465515,271.2982483,439.9616699,253.3474884,439.9616699z M466.7608337,439.9616699
		c-17.949646,0-32.5563965-17.2139587-32.5563965-38.3764954c0-21.151123,14.6067505-38.3605347,32.5563965-38.3605347
		c17.9439392,0,32.5392761,17.208313,32.5392761,38.3605347
		C499.301239,422.7465515,484.7059021,439.9616699,466.7608337,439.9616699z M594.114502,132.1741791
		c-13.458252-1.7108002-29.914917,6.4154663-50.1593018,24.7916565
		c-29.2124023,26.477356-44.1863708,57.8316345-49.7053833,71.3936462
		c27.8722534,1.5408478,28.4219971,9.5211182,28.6079102,12.2914886c0.2634277,3.7147064-1.7507324,7.1100464-3.8869019,10.7050018
		c-0.6033325,1.0162048-1.2294922,2.0757599-1.8339844,3.1763611c4.9533081,0.015976,10.4996948,1.0105133,13.8209229,4.688736
		c2.4384155,2.7121887,1.7461548,6.0812988,0.7903442,10.7426453c-0.817749,3.9587402-2.1795044,10.5920715-0.4014282,13.2723083
		c1.9332275,2.9106445,5.4083862,6.5181274,9.8017578,11.0745239c9.774292,10.1473083,23.1618042,24.0400696,35.7133179,46.4434509
		c1.4655762,2.6141052,0.5325928,5.9250488-2.0814819,7.390625c-0.8394775,0.4721985-1.7506714,0.6911621-2.6517334,0.6911621
		c-1.9046631,0-3.750061-0.999115-4.7434692-2.7783203c-11.8717651-21.17276-24.6924438-34.4838867-34.06073-44.2023315
		c-4.7719727-4.9590149-8.5437012-8.873291-11.031189-12.6073914c-4.2781372-6.4576721-2.4213257-15.4952087-1.1918945-21.4750061
		c0.1254883-0.5953674,0.2634888-1.2842407,0.3843994-1.9217834c-2.460144-0.6204529-7.3575439-0.5599976-11.4657593,0.2805786
		c-1.783783,0.3649597-3.6246033-0.1870422-4.9190674-1.4689941c-1.2910767-1.2819519-1.8499451-3.1273499-1.4986572-4.9111023
		c1.1314087-5.7003784,3.8435669-10.2716064,6.0231323-13.9418335c0.6535339-1.1040344,1.471283-2.481781,1.9662781-3.4980011
		c-3.7728882-1.7210541-14.6443787-3.2094421-25.1315613-3.3303375c-1.71875-0.0193939-3.3280334-0.8508301-4.3328552-2.2400055
		c-1.010498-1.3891602-1.3070679-3.1706696-0.7961121-4.8096008c0.5874023-1.8727417,14.7653198-46.2484283,55.3225098-83.0133514
		c22.7387085-20.6321564,42.0284424-29.5989838,58.8135986-27.5289307c2.975647,0.3729553,5.09021,3.0885544,4.7172241,6.0676117
		C599.8079834,130.4325867,597.1015625,132.5414276,594.114502,132.1741791z"/>
	<g id="white_00000078743407400725282860000011931302600783714195_">
		<path class="st1" d="M656.2766724,567.5343018c-9.3945312-11.9105225-24.8783569-19.9113159-42.4778442-21.9585571
			c-2.7828979-0.3181763-5.6113892-0.4779053-8.3954468-0.4779053c-27.4718628,0-50.0726318,15.6594849-52.5657959,36.4318848
			c-0.9990845,8.3361206-0.4219971,20.4212036,7.9677124,30.65625c3.4694824,4.2337036,8.0829468,7.7373657,13.6008301,10.5487671
			c0.850769-12.8161011,4.8221436-27.2027588,5.0183105-27.9110107c0.8303833-2.9664917,3.9257202-4.6955566,6.8591309-3.866394
			c2.965332,0.8234253,4.7000732,3.8983154,3.8709106,6.8637085c-0.0490723,0.1756592-4.7103882,17.0930786-4.7605591,29.173584
			c5.4197998,1.5602417,11.3938599,2.652832,17.9553223,3.1627197c2.899231,0.2303467,5.6946411,0.3410034,8.4125366,0.3900757
			c4.5689087-8.3076172,7.7099609-22.4136963,8.5927124-27.6350098c0.5109253-3.0315552,3.3770752-5.0913086,6.4257202-4.5632935
			c3.0303345,0.5098267,5.0787354,3.3828125,4.5678101,6.4188843c-0.119751,0.7253418-2.4213257,14.0513306-7.0507812,25.3186035
			c24.4073486-2.4703979,37.6088867-14.2600098,40.2276001-35.855896
			C665.623291,585.0003662,662.774292,575.765564,656.2766724,567.5343018z"/>
		<path class="st1" d="M167.3858643,582.2722168c-2.5696106-20.5979004-25.0836334-36.1262207-52.3627853-36.1262207
			c-2.9220276,0-5.886261,0.1813354-8.8185577,0.5337524c-17.5823822,2.1464844-33.0171509,10.2408447-42.3421097,22.1992188
			c-6.4462662,8.2756958-9.2462654,17.5390625-8.0829201,26.7853394
			c2.7349892,21.5297852,16.1498756,33.2703247,40.463665,35.6038818
			c-4.695549-11.2456055-7.0781174-24.5612793-7.2104187-25.2866211c-0.5269241-3.0303955,1.4940872-5.9136353,4.5244827-6.4451294
			c3.0748596-0.5599976,5.9250488,1.4940796,6.4519653,4.5187988c0.9226913,5.2213135,4.1617889,19.3182373,8.7854919,27.6087646
			c2.7019119-0.0661621,5.4745331-0.192749,8.38517-0.4345703c6.5568848-0.5531616,12.5138779-1.6799927,17.9222641-3.2664795
			c-0.1322937-12.1021729-4.8814545-29.013916-4.9316559-29.1964111c-0.8394165-2.9596558,0.8793488-6.0402222,3.8390198-6.8796387
			c2.9756317-0.8234863,6.0402374,0.8735962,6.8796692,3.8378296c0.2030029,0.7025757,4.2450409,15.1063232,5.172287,27.916687
			c5.5076141-2.8444214,10.1039429-6.3755493,13.546051-10.6296997
			C167.940155,602.7310181,168.4351501,590.6174927,167.3858643,582.2722168z"/>
		<path class="st1" d="M627.5319214,491.7850342c-0.3786011-1.1644897-0.3022461-2.3825684,0.0992432-3.4923096
			c-56.3660889-18.7947693-78.7203979,24.5452881-135.7331543,15.9240417
			c-12.4534302-1.8772888-22.8470764-24.1381226-45.0041199-48.4085693
			c-22.4034119-24.5453186-46.3772888-28.4481812-52.4882507-38.7551575
			c-4.0523071-6.8465881-3.6348572-9.4937744-4.5358582-25.5603943
			c-2.4931946-44.1749268,1.2294922-79.1583557,5.8691406-112.0272522
			c6.045929-42.8416595,13.3213806-63.0141754,17.1763611-71.3286285
			c-21.1282654-4.3100739-36.855011-4.6339722-52.7790833-4.387619
			c-16.0780029-0.2338104-31.8367004,0.0844116-52.9387817,4.3841858
			c3.8549805,8.3133087,11.1247253,28.486969,17.1763611,71.3309326
			c4.6396484,32.868866,8.3520813,67.8522949,5.8645935,112.0272217
			c-0.9010315,16.0666504-0.4892883,18.7137756-4.5404358,25.5603943
			c-6.1006775,10.3069458-30.074585,14.210968-52.4836731,38.7551575
			c-22.1616211,24.2704468-32.5506897,46.5312805-45.0041199,48.4085999
			c-57.0081482,8.6212158-79.3727722-34.7188416-135.7490845-15.9240723
			c0.3957596,1.1097107,0.4721756,2.3221436,0.0992203,3.4866028c-0.087822,0.269165-7.6540833,24.2156677-3.9918442,47.48703
			c0.2315292-0.076416,0.4721756-0.1311646,0.7082672-0.2087402l9.1151047-2.3723145
			c2.1305084-0.428833,4.282692-0.8017578,6.4736328-1.0697632c3.3828125-0.4060059,6.7975616-0.6102295,10.1586838-0.6102295
			c33.4288788,0,60.1047058,19.2954712,63.4213409,45.8778076c0.5440369,4.3271484,0.5873718,8.5060425,0.2463684,12.546936
			h139.2140198c-4.2496338-9.8666992-6.4131775-20.991394-6.8796997-31.4683228
			c-0.1049194-2.3015747-0.1208801-4.4035645-0.0387573-6.3322144c-1.7678223-0.043335-3.5368042-0.0878296-5.3593445-0.2736816
			c-18.5700989-1.8510742-32.4742432-8.444519-41.3144836-19.6033936
			c-12.1454926-15.326416-9.9226227-33.4836426-9.8233948-34.2523804c0.4014587-3.0748901,3.1467285-5.2715454,6.315094-4.8438416
			c3.0805664,0.4060364,5.2441406,3.2345581,4.8438416,6.315094c-0.0171204,0.1152039-1.6469421,14.3797607,7.5662537,25.9013672
			c6.8910522,8.6155396,18.1697693,13.7593384,33.5338135,15.2922363c4.0739746,0.3945923,7.9449463,0.3398438,11.6356812-0.0388184
			c1.9160767-0.1972656,3.7888184-0.4664307,5.5897217-0.8508301c0.3672485-0.076355,0.7242432-0.1755981,1.0926514-0.2634277
			c1.9000854-0.4448242,3.7614441-0.9558105,5.5235596-1.5864868c0.0114136-0.0056763,0.0216675-0.0056763,0.0330505-0.0114136
			c9.9169006-3.5527344,17.4888611-9.7686157,21.9802551-16.1772461c0.0775757-0.116333,0.1482849-0.2246704,0.2201233-0.3353271
			c0.6808777-0.9934082,1.246582-1.9924927,1.7735291-2.9813232v-17.0109863
			c-11.4269714-5.3205872-36.9382935-18.6248169-42.5610962-33.7642212
			c-1.6742859-4.5301514-1.4940796-8.8960876,0.5542908-12.9757996
			c11.6356812-23.3146667,44.9379578-23.9465332,47.4528198-23.9682007c0.0102539,0,0.0102539,0,0.0273438,0
			c0,0,0.0490417,0,0.0604553,0c0.0227966,0,0.0661621,0,0.0775452,0c0.0045776,0,0.0045776,0,0.0102844,0
			c2.5319519,0.0227966,35.8285522,0.6535034,47.4642029,23.9682007c2.0484009,4.0796814,2.2240601,8.4456177,0.5440369,12.9757996
			c-5.595459,15.0663757-30.8752747,28.3056335-42.385437,33.6809387v17.3839417
			c0.4949646,0.9124146,1.0002441,1.8179932,1.6206665,2.7304688c0.0490417,0.0718384,0.0935364,0.1425171,0.1425781,0.2143555
			c5.2543945,7.5388794,14.8371277,14.8143921,27.4388428,17.8242188c0.3181763,0.0718384,0.6318359,0.159668,0.9557495,0.2303467
			c1.8339844,0.4014893,3.7443542,0.6911621,5.6992493,0.8999023c3.7454834,0.395752,7.681427,0.4607544,11.8226929,0.0559082
			c15.4290771-1.5443115,26.7408447-6.72229,33.6262207-15.402832c9.2189026-11.6300049,7.5000916-25.6539307,7.4784546-25.790802
			c-0.4003601-3.0805664,1.7632446-5.9090881,4.843811-6.315094c3.1467285-0.4277039,5.9079285,1.7689514,6.3139954,4.8438416
			c0.0992126,0.7687378,2.3232422,18.9270935-9.8233948,34.2523499
			c-8.8459473,11.1577759-22.7478333,17.7511597-41.3201904,19.6033936
			c-1.9160767,0.1915894-3.7820129,0.2531738-5.6387634,0.2851562c0.1265869,2.1851807,0.1322937,4.6567383-0.0057068,7.5617065
			c-0.4836121,10.0594482-2.6083984,20.7062378-6.6869507,30.227356h139.3668213
			c-0.4402466-4.2438965-0.4516602-8.6531372,0.0924072-13.2221069
			c3.168396-26.3735352,30.5250244-46.2564087,63.6357422-46.2564087c3.2014771,0,6.4576416,0.1859131,9.6705322,0.5542603
			c2.8114624,0.3239136,5.5566406,0.8337402,8.2631226,1.4223022c0.2247314-0.076416,0.395752-0.2531738,0.631897-0.2976685
			c1.7461548-0.3341675,3.5755615,0.192749,4.8540649,1.449585l0.3353271,0.3295898
			c0.8451538,0.2475586,1.7073364,0.472229,2.5422363,0.7459106
			C634.9785156,515.1886597,627.619812,492.0541687,627.5319214,491.7850342z"/>
	</g>
	<g id="pink_00000026862957872724293120000009643830528345869492_">
		<path class="st2" d="M397.6619263,554.9760132c-13.6395874-2.0210571-24.2761536-8.0111084-31.8207092-14.9637451v22.9793701
			c0,3.1090698-2.5137634,5.6239624-5.6228027,5.6239624c-3.1079407,0-5.6228027-2.5148926-5.6228027-5.6239624v-23.1378784
			c-7.6107483,7.0712891-18.3944397,13.1730957-32.2815247,15.1713257
			c-0.5599976,7.6323853,0.977417,29.1963501,11.4269714,43.6491089
			c6.5888367,9.1196899,15.1940918,13.5574951,26.3028564,13.5574951c11.2672729,0,20.2900085-4.6625366,26.8024292-13.8540039
			C397.1350098,583.854126,398.342804,562.4327393,397.6619263,554.9760132z"/>
		<path class="st2" d="M598.4017334,131.1967468c-0.0820923-0.0524597-0.1699219-0.0957947-0.2577515-0.1482544
			c-1.0983276,0.8645172-2.5263062,1.3115997-4.0306396,1.1256866c-13.4581909-1.7107849-29.914917,6.4154816-50.1593018,24.7916718
			c-29.2123413,26.4773712-44.1863098,57.8316193-49.7053223,71.393631
			c27.8721924,1.5408478,28.4219971,9.5211182,28.6078491,12.2914886c0.2634888,3.7147064-1.7506714,7.1100464-3.8869019,10.7050018
			c-0.6033325,1.0162048-1.2294922,2.0757599-1.8339844,3.1763611c4.9533081,0.015976,10.4997559,1.0105133,13.8209839,4.688736
			c2.4384155,2.7121887,1.7461548,6.0812988,0.7903442,10.7426453c-0.817749,3.9587402-2.1795654,10.5920715-0.4014282,13.2723083
			c1.9331665,2.9106445,5.4083252,6.5181274,9.8016968,11.0745239c9.774353,10.1473083,23.1618652,24.0400696,35.7133789,46.4434509
			c0.4117432,0.7253723,0.5874023,1.5100708,0.6420898,2.2958984
			c10.871521-15.1998291,34.9115601-55.2779846,39.1235352-117.6318054
			C622.0631104,144.4051971,598.4017334,131.1967468,598.4017334,131.1967468z"/>
		<path class="st2" d="M143.2420197,340.7494202c12.5583496-22.3977051,25.9458771-36.2893372,35.7190704-46.4320374
			c4.3978729-4.5621033,7.8742065-8.1707458,9.8131104-11.0859375c1.7678223-2.6688232,0.4060364-9.3021545-0.401474-13.2666321
			c-0.9546204-4.6613464-1.6469269-8.0304565,0.7801208-10.7323608c3.3166656-3.6839142,8.8676147-4.6807404,13.8152313-4.7001343
			c-0.5987701-1.0949097-1.2249298-2.1521606-1.8225708-3.162674c-2.141922-3.6052094-4.1572266-7.0062714-3.8880615-10.7426453
			c0.1870575-2.7429657,0.7242279-10.7266693,28.5976105-12.2663879
			c-5.5190125-13.5631561-20.4930115-44.916275-49.6996613-71.3913574
			c-20.2455139-18.378479-36.6691132-26.5058746-50.1604233-24.7950897
			c-1.5043564,0.1836395-2.9322968-0.2611694-4.0306244-1.1257019c-0.0821228,0.0513306-0.1699371,0.0958099-0.2531967,0.1482697
			c0,0-23.6659546,13.2084656-18.2245026,94.2224731c4.2119598,62.3480988,28.2406158,102.4262848,39.1121368,117.6260834
			C142.648941,342.2594604,142.8302917,341.4804993,143.2420197,340.7494202z"/>
	</g>
</g>
</svg>
